<?xml version="1.0" encoding="utf-8"?>
<!-- Generator: Adobe Illustrator 23.0.0, SVG Export Plug-In . SVG Version: 6.00 Build 0)  -->
<svg version="1.1" xmlns="http://www.w3.org/2000/svg" xmlns:xlink="http://www.w3.org/1999/xlink" x="0px" y="0px"
	 viewBox="0 0 600 600" style="enable-background:new 0 0 600 600;" xml:space="preserve">
<style type="text/css">
	.st0{display:none;}
	.st1{display:inline;fill:#FC3947;}
	.st2{display:inline;}
	.st3{fill:#FEFEFE;}
	.st4{display:inline;fill:#FFFFFF;}
	.st5{display:inline;fill:#FEFEFE;}
	.st6{fill:#FFFFFF;}
	.st7{display:inline;fill:none;stroke:#FFFFFF;stroke-width:10;stroke-miterlimit:10;}
	.st8{display:inline;fill-rule:evenodd;clip-rule:evenodd;fill:#FFFFFF;stroke:#FFFFFF;stroke-width:5;stroke-miterlimit:10;}
	.st9{fill-rule:evenodd;clip-rule:evenodd;fill:#FFFFFF;}
	.st10{fill:none;}
	.st11{display:inline;fill:none;stroke:#FFFFFF;stroke-width:12;stroke-linecap:round;stroke-miterlimit:10;}
	.st12{display:inline;fill:none;stroke:#FFFFFF;stroke-width:12;stroke-linecap:round;stroke-linejoin:round;stroke-miterlimit:10;}
	.st13{display:none;fill:none;}
	.st14{display:inline;fill:none;stroke:#FFFFFF;stroke-width:10;stroke-linecap:round;stroke-miterlimit:10;}
	.st15{display:inline;fill:none;stroke:#FFFFFF;stroke-width:11;stroke-linecap:round;stroke-miterlimit:10;}
	.st16{fill-rule:evenodd;clip-rule:evenodd;fill:#FFFFFF;stroke:#FFFFFF;stroke-width:3;stroke-miterlimit:10;}
	.st17{fill-rule:evenodd;clip-rule:evenodd;fill:#29ABE2;}
	.st18{fill-rule:evenodd;clip-rule:evenodd;fill:#0071BC;}
</style>
<g id="Capa_3" class="st0">
	<circle class="st1" cx="297.2" cy="287.1" r="179"/>
	<g id="_2251256727504_3_" class="st2">
		<path class="st3" d="M237,253.5c-2.7,1.6-2.6,3.9-8.6,1.5l0.1,5.7c0.3,12.2,10.4,21.8,22.5,21.5c12.4-0.4,21.3-10.6,21-23.2
			s0.2-12.8-11.1-12.6c-3,0.1-5.3-0.1-6,2.6c-1.1,4.8,4.3,4.3,6.8,4.2c3.3-0.1,2.7,0.3,2.8,3.5c0.1,4.4-7.7-1.1-14.2,8.6
			c-0.3,0.4-0.3,0.7-0.8,0.8c-3.4,1.1-0.3-6,7.8-8.6c1.4-0.5,4.1-0.7,5.1-1.1l0-1.2c-1.9-0.1-10.2,1.1-9.5-6.1c0.6-6,7.4-4.9,10.9-5
			c1.3-3.8,2.6-10.1,3.5-14.3c0.9-3.8,4.4-12.4-1.8-12.3c-2.9,0.1-3.4,2.3-4,4.8c-0.5,2.5-1.2,4.8-1.8,7.3c-0.6,2.4-1.1,4.6-1.7,7.1
			c-0.6,2.5-1,6-2.3,6.9c-1.8-0.6-1.3-2.2-1.3-4.4l-0.4-17.1c-0.1-3.6,0.3-8.1-3.9-8s-3.5,4.6-3.5,8.1c0.2,7.7,0.4,15.3,0.5,23
			c0.1,4.2,0.5,6.9-2.1,9.1C242,256.9,238.7,255.5,237,253.5L237,253.5z"/>
		<path class="st3" d="M245.1,249l-0.3-12.2c-0.1-4-3.7-5.9-6.2-3.5c-2.1,2-1.2,6.6-1.1,9.9c0.1,3.5-0.5,8,1.8,9.7
			C242.3,255.1,245.2,252.6,245.1,249L245.1,249z"/>
		<path class="st3" d="M230.4,235.5c-3.4,1.4-2.4,4.9-2.3,10.6c0,1.9-0.2,4.6,0.8,6.1c0.7,1.1,2.4,2.2,4.5,1.4
			c3.3-1.4,2.2-6.5,2.1-10.6c0-1.7,0.1-5-0.6-6.2C234.2,235.7,232.2,234.8,230.4,235.5z"/>
	</g>
	<path id="piedra_1_" class="st4" d="M307,238.4l7.5-0.1c0-2.3,0.4-6.7-0.7-8.3c-0.9-1.3-2.7-2-4.3-1.3
		C306.1,229.9,307,234.6,307,238.4z M303.5,246.7c-0.1-2.5-1.1-3.5,0.5-5.9c1.4-2.1,0.9-2,0.9-6.6c0-2.1,0.3-5.3-0.7-6.8
		c-0.9-1.3-3.3-2.2-5.1-0.9c-2.7,2-1.7,8.9-1.7,12.8C297.4,244.6,297.6,248.8,303.5,246.7L303.5,246.7z M290.3,226.2
		c-3.5,1.7-2.5,5.5-2.5,12.2c0,1.7-0.3,5.3,0.4,6.8c0.8,1.8,3,2.7,4.8,1.9c3.4-1.4,2.3-8.1,2.3-12.2c0-1.8,0.3-5.3-0.4-6.8
		S292.4,225.2,290.3,226.2L290.3,226.2z M280.7,228.7c-1.7,0.8-2.4,1.4-2.4,3.9c0,2.2-0.4,11.4,0.5,12.9c0.9,1.6,2.8,2.3,4.6,1.7
		c3.5-1.2,2.5-6.9,2.5-10.7c0-2,0.4-4.7-0.6-6.2C284.4,228.9,282.7,227.9,280.7,228.7L280.7,228.7z M314.3,252.5
		c-1.1,0.7-3.6,0.6-5.1,0.9c-4.4,1.1-6.6,2.9-8.9,6.1c-1.3,1.8-2.9,0.6-1.7-1.3c4.4-7.1,12.7-6.7,14-7.6l0-1c-1.2-0.4-2.7-0.1-4-0.2
		c-2.4-0.1-2.2-0.7-3.8-1.2c-3.4,1.9-6.3,1.5-8.2-1.2c-1.4,0.8-2.2,2.3-4.8,2.4c-2.7,0.1-3.7-1.5-5.2-2.3c-0.7,0.9-1.7,2-3.4,2.2
		c-2.2,0.4-3.3-0.4-4.8-1c-0.4,6.4-0.1,10.8,2.3,16c5.3,11.1,20,15.6,31,8.9c2.3-1.4,3.3-2.5,5-4.3c2.5-2.6,5.2-7.7,5.6-12.6
		c0.3-2.9,0.1-6.4,0.1-9.3c0-3.2-0.8-5.1-3.2-6.2c-1.7-0.8-6.2-0.4-8.4-0.5c-2.9,0-5.6,0.3-5.7,3.5c0,3.2,2.6,3.6,5.7,3.6
		c1.4,0,3.3-0.4,3.7,0.7c0.2,0.5,0.2,1.6,0.2,2.2C314.7,250.9,314.7,251.9,314.3,252.5L314.3,252.5z"/>
	<path id="papel_1_" class="st5" d="M345.6,248.3c-2,0.2-1.7-0.6-1.7-2.6l0-13c0-4.7,1.6-14.3-4-13.8c-4.4,0.4-3.2,7.6-3.2,14.1
		c0,2.9,0.6,15.7-0.5,17.3c-2.1,0.2-1.6-0.8-1.6-4c0-2.3,0.5-14.2-0.6-15.8c-0.7-1-1.9-1.6-3.1-1.6c-3.3,0.1-3.5,2.9-3.5,6.1v25.6
		c0,8.1,3.9,14.1,8.2,17.6c4.7,3.8,12.5,6.2,20,4.1c6.7-1.9,11.2-6.4,13.9-11.7c3.2-6.3,2.3-18,2.3-26c0-8-6.2-5.5-7-3.6
		c-0.7,1.5-0.3,11.4-0.3,13.9c0,5.5-1.5,1-8.8,4.6c-6.4,3.2-4.7,6.1-7.6,5.7c-1.1-3.9,7.2-8.9,14.2-9.4l0.1-30.8
		c0-2.9-0.1-5.7-3-6.1c-3.5-0.4-4.2,2.1-4.2,5.1v22.6c0,2.6-2.1,3.2-2.1-0.7v-27.3c0-4-3.6-5.9-6.1-3.4c-1.8,1.8-1.1,7.3-1.1,10.4
		C346,228.9,346.6,246.8,345.6,248.3L345.6,248.3z"/>
	<g class="st2">
		<g>
			<path class="st6" d="M198.3,326.2l3.2-3.1c2.3,3.5,5.4,5.2,8.5,5.2c5.6,0,8.1-2.8,8.1-9.3v-22.2h-16.5v-4.3h21.6v26.8
				c0,7.3-3.3,13.3-13.1,13.3C205.7,332.7,201.1,330.7,198.3,326.2z"/>
			<path class="st6" d="M234.3,324.4c0-6.5,6.1-9.7,21.2-10.9c-0.2-4-2.1-7.3-7.7-7.3c-3.8,0-7.5,1.8-10.2,3.5l-2-3.4
				c3-1.9,7.9-4.2,13-4.2c8,0,11.9,4.7,11.9,12V332h-4.1l-0.4-4h-0.2c-3.2,2.5-7.4,4.7-11.5,4.7
				C238.8,332.7,234.3,329.6,234.3,324.4z M255.5,324.4v-7.6c-12.5,1-16.3,3.4-16.3,7.3c0,3.3,3,4.6,6.4,4.6
				C248.9,328.7,252.2,327.1,255.5,324.4z"/>
			<path class="st6" d="M271.1,302.8h4.1l0.4,4.9h0.2c3.1-3.2,6.4-5.6,11-5.6c6.9,0,10.1,4.1,10.1,11.8V332h-5v-17.5
				c0-5.5-1.9-8.1-6.7-8.1c-3.5,0-5.8,1.7-9.2,5.2V332h-5V302.8z"/>
			<path class="st6" d="M307.9,289.2h5v28.9h0.2l15.7-15.3h5.7l-21.6,21.3v7.9h-5V289.2z M319.1,316.5l3-3.2l13.9,18.7h-5.5
				L319.1,316.5z"/>
			<path class="st6" d="M341.7,317.3c0-9.5,7.1-15.3,14.9-15.3c8.4,0,13.3,5.5,13.3,13.7c0,1.1-0.1,2.2-0.2,3H345v-3.8h21.7
				l-1.3,1.4c0-6.9-3.4-10.3-8.8-10.3c-5.4,0-10.1,4.1-10.1,11.4c0,7.6,4.9,11.4,11.4,11.4c3.5,0,6.2-1.1,8.9-2.8l1.8,3.2
				c-2.9,1.9-6.6,3.5-11.3,3.5C348.7,332.7,341.7,327.1,341.7,317.3z"/>
			<path class="st6" d="M379.3,302.8h4.1l0.4,4.9h0.2c3.1-3.2,6.4-5.6,11-5.6c6.9,0,10.1,4.1,10.1,11.8V332h-5v-17.5
				c0-5.5-1.9-8.1-6.7-8.1c-3.5,0-5.8,1.7-9.2,5.2V332h-5V302.8z"/>
		</g>
	</g>
</g>
<g id="Capa_2">
	<g>
		<g>
			<g class="st0">
				<path class="st7" d="M753.9,82.6c0.7,0-0.4,0.3-0.3,0.5c0.2,0.4,0.9,1,1.4,1.4c6.7,7,13.8,12.9,22.5,17.1
					c3.7,1.8,7.6,3.3,11.6,4.5c1,0.3,1.1,0.6,0.4,1.4c-4.3,5.2-8.5,10.4-12.7,15.6c-0.5,0.6-1,0.7-1.7,0.7
					c-6.7-0.1-13.3-1.1-19.7-2.7c-11.6-2.8-22.1-7.8-31.3-15.3c-4.6-3.7-8.8-7.9-12.1-12.9c-0.5-0.7-0.6-1.3-0.6-2.1
					c-0.1-5.2,0.4-10.3,0.5-15.5c0.2-0.4,0.3-0.9,0.1-1.3c0.1-0.7,0.1-1.5,0.2-2.2c0.2-0.3,0.2-0.6,0.1-0.9c0-0.5,0.1-0.9,0.1-1.4
					c0.8-6.6,1.6-13.1,2.8-19.6c1.5-8.3,3.3-16.5,5.5-24.7c1.3-4.8,2.4-9.7,4.2-14.4c1.8-5,3.3-10,5.3-14.9
					c2.9-6.8,5.1-13.5,8.1-20.3c1.8-4.2,5.4-8.5,9.3-11c9-5.7,18.6-9.9,28.8-13c7.9-2.5,15.7-3.5,24-3.7c1.7,0,2.3,1,3,2
					c0.5,0.6-0.4,0.7-0.7,0.8c-2.2,0.7-4.4,1.3-6.5,2c-13.2,4.3-26.3,7.9-38,15.4c-2.5,1.6-6.5,4-8.7,5.7c-0.7,0.6-0.9,2.1-0.1,3
					c55.5-26.1,111.5-27.8,167.7-0.5c1.1-1.9,0.3-5.3-0.1-5.6c-9-6.8-18.8-8.8-29.2-13.3c-6.1-2.6-13.5-3.8-19.9-5.7
					c-1.3-0.4-0.2-1.7,0.4-2.6c1.2-1.7,1.8-1.3,4-1.2c7,0.4,13.8,1.8,20.4,3.7c12.7,3.7,24.9,8.8,35.7,16.6c0.9,0.6,1.6,1.7,2.1,2.7
					c4,7.7,6.9,16.2,10.1,24.3c3.9,10.2,7.3,20.5,10.1,31c3.8,14.1,6.4,28.4,7.9,42.9c0.1,0.9,0,1.9,0.3,2.8
					c0.1,0.7,0.1,1.5,0.2,2.2c-0.1,0.5-0.1,0.9,0.1,1.4c0,1.2,0,2.4,0.2,3.6c-0.1,1-0.1,2.1,0.2,3.1c-0.1,0.3-0.1,0.7,0.1,1
					c-0.3,0.5-0.2,1,0,1.4c0,2.1,0,4.3,0,6.4c0,0.7-0.2,1.3-0.6,1.9c-5.8,8.3-13.3,14.6-22,19.7c-11.1,6.4-23.2,9.9-35.9,11
					c-1.8,0.2-3.6,0.3-5.4,0.3c-0.7,0-1.2-0.2-1.7-0.7c-4.1-5.1-8.2-10.1-12.4-15.1c-0.7-0.9-0.6-1.1,0.5-1.4
					c9.7-2.9,18.8-7.2,26.7-13.6c3.5-2.9,6.9-5.9,9.4-9.8c-0.3-0.3-0.6-0.1-0.9,0c-9.7,6.2-20.2,10.6-31,14.4
					c-11.1,3.9-22.6,6.4-34.3,7.6c-9.6,1-19.2,1-28.9,0.1c-12.4-1.1-24.5-3.7-36.3-7.6C775.2,94,764.3,89,753.9,82.6
					C753.8,82.6,753.8,82.6,753.9,82.6C753.9,82.7,753.9,82.6,753.9,82.6z M895,49.3c-0.2-6-1.9-11.2-5.6-15.6
					c-8-9.6-21.8-10.4-30.8-1.7c-7.9,7.6-9.4,20.5-3.6,29.8c5.1,8.1,14.2,12.1,22.9,10C888.1,69.3,895.2,59.8,895,49.3z M817.5,49.3
					c0-4.8-1.2-9.1-3.6-13c-6.9-11-21.1-13.6-31.1-5.7c-9.8,7.8-11.7,23.1-4,33c5.5,7.1,12.8,10.2,21.7,8.1
					C810.7,69.4,817.5,60.1,817.5,49.3z"/>
			</g>
			<g class="st0">
				<path class="st8" d="M444.1-2c2.6-10.2,5.8-19.9,12.7-28.2c11.5-13.8,26.3-21,44.1-21.1c46.5-0.3,92.9-0.3,139.4,0
					c28.6,0.2,51.3,20.2,56,48.5c0.1,0.7,0.6,1.3,0.9,2c0,26.6,0,53.2,0,79.8c-2.2,10.3-5.4,20.1-12.1,28.5
					c-11.8,14.6-27.3,21.9-45.9,22c-45.7,0.2-91.3,0.2-137,0c-33.8-0.2-54.5-25.2-57.1-48.4c-0.1-0.7-0.5-1.4-0.8-2.1
					C444.1,52,444.1,25,444.1-2z M570.7,119.3c22.9,0,45.7,0.2,68.6,0c27.5-0.2,47.7-20.8,47.7-48.2c0-21.5,0.1-43.1,0-64.6
					c-0.2-26.7-20.1-47.3-46.7-47.5c-46.5-0.3-92.9-0.4-139.4,0c-26.7,0.2-46.5,21-46.5,47.6c0,21.2,0,42.3,0,63.5
					c0,29.3,20,49.3,49.4,49.3C526.1,119.4,548.4,119.3,570.7,119.3z"/>
				<path class="st8" d="M542.2,38.5c0-7.5-0.1-15,0-22.5c0.1-7.2,3-9.3,9.4-6.6c19.1,8,38.3,15.9,57.3,24.1c2.2,0.9,5,3.7,5,5.6
					s-2.8,4.6-5,5.6c-19,8.2-38.1,16.1-57.3,24.1c-6.5,2.7-9.4,0.6-9.4-6.6C542.1,54.2,542.2,46.4,542.2,38.5z M552.7,57.2
					c14.5-6.1,28.4-11.9,43.4-18.1C581,32.8,567.2,27,552.7,21C552.7,33.4,552.7,44.8,552.7,57.2z"/>
			</g>
			<g>
				<path class="st9" d="M371,248.9c-26.4-11.7-41.2,11.3-41.2,11.3c-7.3,10.6-5.1,11.3-5.1,11.3c2.9-5.6,12.1-10.9,24-13.6
					c0.8-2.5,3.2-4.4,6-4.4c2.2,0,4.1,1.1,5.2,2.7c7.1-0.5,13.5,0.2,18.4,1.7l4.7-5.3C382,252.7,371,248.9,371,248.9z"/>
				<circle class="st9" cx="354.8" cy="259.9" r="3.9"/>
				<path class="st9" d="M361.1,258.8c0,0.3,0.1,0.6,0.1,0.9c0,3.5-2.8,6.3-6.3,6.3c-2.3,0-4.3-1.2-5.4-3.1c-1.9,1.3-3.5,3-4.7,5
					c0,0-13.3,20.6-11.2,42.1c0,0,8.1-8.4,15.5-2.8c0,0-6.7-30.7,26.7-47l0.6-1.7C376.3,258.5,368.9,257.6,361.1,258.8z"/>
				<path class="st9" d="M385.7,260.8h-8.4c0,0-30.1,15.1-22.6,44C354.8,304.8,365.2,277.7,385.7,260.8z"/>
				<path class="st9" d="M387.2,259.9c0,0,13.1-9.2,50.1-16c0,0-32.8-0.3-53,9l-5.1,6.3C379.3,259.1,384.8,258.5,387.2,259.9z"/>
				<path class="st9" d="M345.3,263.8c0,0-14.3,16.2-13.9,43c0,0-2.9-2.8-7.5-1.9c0,0,7.6-25.2-82.3-104c0,0,58.1,41.3,82.7,73.8
					C324.4,274.7,335.8,261.5,345.3,263.8z"/>
				<path class="st9" d="M285.6,250.4c0,0-58.8-62.1-110.2-74C175.4,176.4,186.1,208.9,285.6,250.4z"/>
				<path class="st9" d="M299.1,267.7c0,0-12.1-13.8-17.2-15.8c0,0-49.4-17.3-78.5-41l-10.5-1.8
					C192.9,209.1,217.9,253.8,299.1,267.7z"/>
				<path class="st9" d="M307.4,279.5c0,0-8.1-8.8-13.1-9.4c0,0-36.1-6.1-62.1-22.4l-12.4,0.9C219.9,248.6,249.1,287.2,307.4,279.5z
					"/>
				<path class="st9" d="M313.8,288.9c0,0-5.3-6.4-10.5-6c0,0-30.7,2.3-50.1-7.5c0,0-10.5,2.1-11.5,1.5c0,0,25.2,26.3,69.9,13.7
					C311.6,290.5,313.5,290,313.8,288.9z"/>
				<path class="st9" d="M319.2,296.6c0,0-2.9-3-5.4-2.7c0,0-27.7,7.4-49.3-1.3l-8.5,5.9c0,0,34,19.1,63.2-1.7"/>
				<path class="st9" d="M320.2,306.1c0,0-2.8-3-5.8-2.2c0,0-18.8,9.2-39.4,4.7l-6.7,6.3C268.3,314.8,301.9,326.2,320.2,306.1z"/>
				<path class="st9" d="M352.1,303.7c0,0,21.7,38.7-51.9,74.5c0,0-10.1-48.3,34.7-65.1c0,0,6.5-9.3,15.9-3.1L352.1,303.7z"/>
				<path class="st9" d="M323.9,307.5c0,0-13.9,11.5-22.7,10.5c0,0-24.6,20.8-27.7,53.8c5.1-1,13.6-3.9,24.1-12.4
					c2.5-17.2,10.5-38.8,34.4-47.7C332,311.7,329.1,307.4,323.9,307.5z"/>
				<g>
					<path class="st9" d="M296.6,375.5c-0.1-3.7,0-8.3,0.6-13.5c-3.6,2.9-15.1,11.8-24.4,13.5c-0.7,3.7-2,10.3-4,17.7
						C273.2,392.3,282.7,388.9,296.6,375.5z"/>
					<path class="st9" d="M267.8,396.9c-3.2,10.9-7.8,22.4-13.9,27.8c0,0,10.3,0.2,43.2-41.4c0,0-0.3-2.1-0.4-5.7
						C293.7,380.9,279.4,395.7,267.8,396.9z"/>
				</g>
			</g>
			<rect x="175.4" y="174.4" class="st10" width="264.7" height="263.7"/>
		</g>
		<g id="Bancos" class="st0">
			<rect x="212.4" y="249.8" class="st11" width="29.2" height="130.1"/>
			<rect x="288.4" y="249.8" class="st11" width="29.2" height="130.1"/>
			<rect x="365.5" y="249.8" class="st11" width="29.2" height="130.1"/>
			<path class="st11" d="M363.3,427.7h-176c-4.2,0-7.6-3.5-7.6-7.8v-5.9c0-4.3,3.4-7.8,7.6-7.8h237.1c4.2,0,7.6,3.5,7.6,7.8v5.9
				c0,4.3-3.4,7.8-7.6,7.8h-43"/>
			<path class="st11" d="M411.1,398.4c0,4.3-3.5,7.8-7.8,7.8H204c-4.3,0-7.8-3.5-7.8-7.8v-10.7c0-4.3,3.5-7.8,7.8-7.8h199.3
				c4.3,0,7.8,3.5,7.8,7.8V398.4z"/>
			<line class="st12" x1="243.9" y1="210.8" x2="242.9" y2="211.4"/>
			<path class="st12" d="M243.9,210.8"/>
			<path class="st12" d="M246.1,210.1"/>
			<polyline class="st12" points="231.3,218.5 177.6,249.2 303.3,249.2 429,249.2 366.2,213.3 303.3,177.3 255.6,204.6 			"/>
			<path class="st12" d="M231.3,218.5"/>
			<path class="st12" d="M236.9,215.3"/>
		</g>
		<rect x="168.5" y="169.8" class="st13" width="268.3" height="268.3"/>
		<g id="nectar" class="st0">
			<path class="st8" d="M434.3,340.8c-7.6-9.9-17.3-16.9-28.4-22.2c-1.7-0.8-3.5-1.6-5.8-2.6c0.8-0.6,1.3-0.9,1.7-1.3
				c18.1-17.9,30.6-38.9,35.8-64.2c1.8-8.7,2.8-17.3,2.8-26c0-3.3-1.2-4.5-4.5-4.5c-7,0-13.9,0.5-20.8,1.5
				c-19.6,2.9-37.8,9.6-54.5,20.3c-1.9,1.2-2.3,0.8-2.7-1.2c-2.1-8.5-5.1-16.6-9.5-24.1c-0.4-0.8-0.7-1.7-1.2-2.4
				c-3.8-5.9-7.8-11.6-12.5-16.9c-8.1-9.2-17.6-16.4-28.1-22.4c-1.6-0.9-3.2-1.3-4.9-0.3c-9.3,5.1-17.7,11.4-25.2,19
				c-1.5,1.5-1.8,3.2-0.4,4.9c1.2,1.5,3.6,1.6,5.2,0.4c0.7-0.5,1.3-1.2,2-1.9c5.8-5.6,12.1-10.4,19-14.5c1.1-0.7,1.9-0.8,3.1-0.1
				c8.9,5.4,16.9,11.9,24,19.7c5.3,5.8,9.5,12.4,13.5,19.1c0.3,0.6,0.5,1.2,0.8,1.8c8.5,17.4,11.8,35.7,8.5,54.8
				c-5,29.8-21.4,51.9-46.7,67.4c-1.1,0.7-1.9,0.8-3.1,0.1c-13.1-7.9-24.1-18.2-32.6-31c-4.1-6.2-7.2-12.9-10-19.7
				c-1-0.1-1.7,0.3-2.4,0.8c0.7-0.5,1.4-0.9,2.4-0.8c-2.1-7.2-4.3-14.3-4.9-21.8c-0.5-6.9-0.7-13.8,0.2-20.6
				c1.3-9.3,3.6-18.4,7.8-26.9c1.2-2.3,0.5-4.2-1.5-5.1c-2-0.9-4.1-0.1-5.2,2.1c-1.3,2.7-2.3,5.5-3.5,8.3c-1.6,3.9-2.5,8-3.7,12.3
				c-2.8-1.7-5.4-3.3-8-4.8c-13.9-7.9-28.7-13-44.3-15.9c-8.3-1.5-16.7-2.3-25.2-2.2c-3,0-4.2,1.3-4.2,4.3c-0.1,6,0.3,12.1,1.1,18
				c4.2,28.3,16.8,52.2,37.1,72.1c0.6,0.6,1.4,0.9,1.5,1.9c-1,0.4-2,0.8-3,1.2c-14.8,6.4-26.8,16.2-35.6,29.9
				c-1,1.5-1.6,2.9-0.6,4.6c3.9,6.1,8.2,11.8,13.8,16.4c0.7,0.6,1.3,1.3,2,1.9c13.1,11.1,28.4,17.3,45.3,19c13,1.3,25.8-0.3,38-5
				c1.7-0.7,2.4-1.2,2.8,1.2c3.5,19.9,14.7,34.1,31.8,44c1.7,1,3.2,0.8,4.9-0.2c17-9.8,28-24,31.5-43.6c0.3-1.9,0.8-2.1,2.6-1.4
				c9.2,3.5,18.8,5.3,28.6,5.4c3,0.1,4.8-1.3,4.9-3.5c0-2.1-1.6-3.4-4.5-3.6c-0.7,0-1.3-0.1-2-0.1c-15.7-0.6-30-5.5-42.7-14.9
				c-5.2-3.9-10-8.4-14.1-14.1c1.5-0.1,2.6-0.2,3.7-0.3c5.9-0.3,11.7-1.1,17.5-2.3c22.6-4.5,43.1-13.9,61.1-28.4
				c1-0.8,1.8-0.9,2.9-0.5c14.4,5.3,26.5,13.8,35.4,26.7c0.9,1.3,0.7,1.9,0,3c-2,2.8-4.1,5.4-6.5,7.9c-9.9,10.4-21.9,17.1-35.7,20.7
				c-2.8,0.7-4,2.4-3.4,4.6c0.5,1.9,2.7,2.9,5.1,2.3c1.6-0.4,3.2-0.8,4.8-1.3c18.3-5.9,33.1-16.6,43.8-32.8c1.3-2,1.5-3.8,0-5.7
				C437.6,345.3,436,343.1,434.3,340.8z M200.5,298.2c-11.1-14-18.8-29.8-23-47.3c-1.7-7.2-2.3-14.4-2.9-21.7
				c-0.1-1.6,0.2-2.2,2-2.1c16.2,0.8,31.9,4.1,47,10.4c7.9,3.3,15.3,7.4,22.5,12.1c1.4,0.9,1.7,1.8,1.5,3.5
				c-1.7,15.7,0.2,30.9,5.9,45.5c0.6-0.1,1.1-0.5,1.5-0.9c-0.4,0.4-0.9,0.8-1.5,0.9c5.8,15.7,17,32.8,36,46.9
				c-9.5,0.6-38.4-6-60.4-21.1C218.3,317.1,208.6,308.5,200.5,298.2z M233.7,382.7c-11.3-0.3-21.9-3.5-31.9-8.4
				c-5.7-2.8-10.8-6.7-15.6-11c-3.5-3.7-7-7.3-9.9-11.5c-0.7-1.1-0.8-1.8,0-2.9c9.1-12.9,21.3-21.5,35.9-26.9
				c1.2-0.4,1.9,0.3,2.6,0.9c3.2,2.4,6.2,5,9.7,6.9c13.9,9.6,29.3,16,45.6,20c8,1.9,16,3.2,24.2,3.6c0.7,0,1.5,0.2,2.2,0.3
				c0.1,1-0.6,1.5-1,2C279.1,374.9,258.4,383.4,233.7,382.7z M320.6,373.7c2.8,2,5.5,4,8.6,5.5c1.6,0.8,2,1.8,1.7,3.5
				c-2,14.4-8.7,26.1-20,34.9c-8.5,6.6-5.6,6.4-14.3,0c-7.2-5.3-12.4-12.6-16.1-20.7c-2.1-4.6-3.5-9.7-3.9-14.9
				c-0.1-1.1-0.1-1.8,1.1-2.5c10.3-5.5,19-13.1,26.1-22.6C308.7,363.4,314.2,369,320.6,373.7z M336.6,342.8
				c-5.6,1.5-11.3,2.5-17.1,3.1c-0.4,0-0.9,0.3-1.5-0.3c5.1-3.8,9.9-7.9,14.2-12.4c14-14.6,23.1-31.8,26.9-51.8
				c1.8-9.4,2.2-19,0.9-28.6c-0.2-1.6,0.3-2.2,1.4-3c16.6-11.1,34.7-18.2,54.4-21.1c4.8-0.7,9.7-1.2,14.5-1.5
				c2.1-0.1,2.6,0.4,2.5,2.5c-0.9,20-6.3,38.7-16.8,55.7C397.5,315.6,370.5,334.1,336.6,342.8z"/>
			<path class="st8" d="M272.1,208.7c0,2.3-2.8,5.1-5,5.1c-2,0-3.6-1.5-3.6-3.4c0-2.3,2.7-5.2,4.8-5.2
				C270.4,205.1,272.2,206.8,272.1,208.7z"/>
		</g>
		<rect x="165" y="164.6" class="st13" width="277.6" height="280.5"/>
		<g id="operaciones" class="st0">
			<path class="st14" d="M336.3,422.1H217.1c-4.5,0-8.2-3.7-8.2-8.2V184.1c0-4.5,3.7-8.2,8.2-8.2h19.3"/>
			<path class="st14" d="M269.7,175.9h122.7c4.5,0,8.2,3.7,8.2,8.2v229.7c0,4.5-3.7,8.2-8.2,8.2h-31.8H357"/>
			<polyline class="st14" points="240.5,229.5 254.2,244.2 282.7,213.2 			"/>
			<polyline class="st14" points="240.5,278.8 254.2,293.5 282.7,262.5 			"/>
			<polyline class="st14" points="240.5,325.5 254.2,340.2 282.7,309.2 			"/>
			<circle class="st14" cx="262.1" cy="373.8" r="11.7"/>
			<line class="st14" x1="294.3" y1="227.3" x2="372.6" y2="227.3"/>
			<line class="st14" x1="294.3" y1="278.1" x2="372.6" y2="278.1"/>
			<line class="st14" x1="294.3" y1="326.1" x2="372.6" y2="326.1"/>
			<line class="st14" x1="294.3" y1="373.8" x2="372.6" y2="373.8"/>
			<line class="st14" x1="252.5" y1="175.9" x2="253.5" y2="175.9"/>
		</g>
		<rect x="169.3" y="169.9" class="st10" width="260.7" height="260.7"/>
		<g id="referidos_1_" class="st0">
			<line class="st15" x1="278.2" y1="178.6" x2="282.1" y2="178.6"/>
			<g id="referidos" class="st2">
				<path class="st16" d="M260.1,396.6c0.2-2.2,0.2-4.3,0.5-6.3c0.6-3.9,2.6-7.2,5.4-10.1c3.9-4,7.9-7.9,11.8-11.8
					c1.3-1.3,2-2.8,2-4.7c0-9.6,0-19.1,0-28.7c0-1.5-0.6-2.3-1.9-3c-13.1-6.2-22.9-15.8-29.7-28.5c-0.5-1-1.7-1.8-2.7-2.2
					c-4.7-1.9-9.6-3.3-14.2-5.4c-18-8.2-28.2-22.3-31.3-41.8c-0.6-3.8-1-7.7,0.1-11.5c2.4-7.9,8.9-12.6,17.8-12.6
					c7.2,0,14.4,0,21.6,0c0.5,0,1,0,1.6,0c0-6.3,0-12.5,0-18.9c-0.5,0-1,0-1.4,0c-3.3-0.1-6.7,0.1-10-0.3c-5.7-0.7-9.4-4.4-9.8-10.1
					c-0.3-5.3-0.3-10.6,0.1-15.9c0.4-5.6,5.2-9.6,10.9-9.6c9.2,0,17.2,0,26.4,0c2.2,0,4.3,0,6.5,0c2.5,0,4,1.4,4,3.5
					c0,2.2-1.5,3.6-4,3.6c-10.8,0-20.5,0-31.3,0c-4.1,0-5.6,1.5-5.6,5.6c0,3.4,0,6.9,0,10.3c0,4.3,1.5,5.8,5.8,5.8
					c10.6,0,21.3-0.1,31.9-0.1c37.3,0,74.6,0,111.9,0c1.1,0,2.3-0.3,3.4-0.7c1.4-0.6,2-2,2-3.5c0-4.4,0.1-8.9-0.1-13.3
					c-0.1-2.6-1.7-3.9-4.3-4.1c-0.5,0-0.9,0-1.4,0c-26.8,0-50.6,0-77.3,0c-0.6,0-1.2,0-1.8,0c-2-0.2-3.3-1.6-3.2-3.6
					c0-1.9,1.3-3.2,3.2-3.4c0.5-0.1,1,0,1.6,0c27.1,0,51.2,0,78.3,0c7.6,0,12.2,4.7,12.2,12.2c0,4.6,0.2,9.2-0.2,13.7
					c-0.5,5.9-5.3,9.9-11.2,10c-3.3,0-6.6,0-10,0c0,6.3,0,12.5,0,18.9c0.5,0,0.9,0,1.4,0c7.7,0,15.4,0,23,0c7.6,0,14.4,5,16.4,12
					c1.2,4.1,1,8.2,0.4,12.3c-1.6,10.8-5.7,20.6-13.2,28.8c-6.6,7.1-14.6,11.9-23.7,15c-2.7,0.9-5.3,1.9-8,2.8
					c-1.8,0.6-3,1.7-3.8,3.4c-6.5,12.3-16,21.4-28.5,27.4c-2,0.9-2.7,2.2-2.6,4.3c0.1,7.8,0.1,15.6,0.1,23.5c0,1.2-0.1,2.3-0.1,3.5
					c0,2.2,0.7,4.1,2.4,5.7c3.7,3.5,7.2,7.2,10.8,10.7c4.4,4.2,6.5,9.3,6.4,15.4c0,0.5,0,0.9,0,1.5c2.5,0.2,5,0.2,7.4,0.4
					c4.2,0.4,7,3.4,7,7.6c0,6,0,12.1,0,18.1c0,4.6-3.3,7.8-8.1,7.8c-5.3,0-10.5,0-15.8,0c-0.7,0-1.5,0.1-2.2,0.1
					c-2.3,0.1-4.1-1.6-4-3.8c0.1-2.2,1.8-3.6,4.1-3.6c6.1,0.1,12.1,0.1,18.2,0.1c0.2,0,0.4-0.1,0.6-0.1c0-6.3,0-12.6,0-19
					c-34.2,0-68.3,0-102.6,0c0,6.3,0,12.6,0,19.1c0.5,0,1,0,1.5,0c23,0,40.8,0,63.8,0c0.4,0,0.8,0,1.1,0c2.4-0.1,4,1.2,4,3.5
					c0.1,2.3-1.4,3.7-3.8,3.7c-18.6,0-31.8,0-50.4,0c-4.9,0-9.8,0.1-14.7,0.2c-5.8,0.1-9.4-3.9-9.2-9.7c0.2-5.1,0-10.2,0.1-15.3
					c0-1.2,0.1-2.5,0.5-3.6c1-3.3,3.9-5.2,8-5.3C256.2,396.6,258.1,396.6,260.1,396.6z M248.6,211.4c0,0.6,0,1.2,0,1.7
					c0,6.7,0,13.4,0,20.1c0,0.7-0.1,1.5-0.3,2.2c-2.1,7.7-2.8,15.6-2.9,23.6c-0.1,8.3,1,16.4,3,24.4c3.1,12,8,23.1,17.3,31.8
					c13,12.3,28.5,17.5,46.2,15.1c18.5-2.5,32.4-12.1,41.4-28.4c10.6-19.1,13-39.4,8.8-60.7c-0.5-2.7-1.6-5.3-1.7-8
					c-0.3-4.8-0.1-9.7-0.1-14.5c0-2.4,0-4.9,0-7.4C323,211.4,285.9,211.4,248.6,211.4z M322,336.2c-11.7,2.1-23.3,2.1-34.9,0
					c0,0.9,0,1.5,0,2c0,8.4,0,16.9,0,25.3c0,4-1.4,7.3-4.3,10.1c-4,4-8,8-12,12c-3,3-3.7,6.7-3,10.9c24.5,0,49,0,73.5,0
					c0.5-4.2-0.2-7.9-3.2-11c-4.2-4.2-8.4-8.5-12.7-12.7c-2.3-2.3-3.5-5.1-3.4-8.4c0-6.8,0-13.7,0-20.5
					C322,341.5,322,339.1,322,336.2z M240.4,237.4c-0.4-0.1-0.5-0.1-0.6-0.1c-7.6,0-15.2-0.1-22.7,0c-5.4,0.1-9.1,3-9.9,7.9
					c-0.5,3-0.4,6.2,0.2,9.3c3.1,17.4,13,29.5,29.4,36.1c2.2,0.9,4.6,1.6,7.1,2.4C237.7,274.6,236.7,256.2,240.4,237.4z
					 M365.5,292.6c0.5-0.1,0.7,0,0.9-0.1c17.9-5.3,30-16.3,34.5-34.8c1-3.9,1.5-7.9,1.1-11.9c-0.6-5.2-5-8.6-10.9-8.6
					c-6.6,0-13.3,0-19.9,0c-0.8,0-1.6,0.2-2.5,0.3C373,256.2,372,274.5,365.5,292.6z"/>
				<path class="st16" d="M287.5,260.4c1.9,0,3.9,0,5.8,0c2.1,0,3.1-0.7,3.8-2.7c1.3-3.9,2.6-7.9,3.9-11.8c0.5-1.5,1.2-2.7,2.9-2.9
					c2-0.3,3.3,0.6,4,2.6c1.2,3.6,2.4,7.3,3.6,11c1.1,3.3,1.8,3.8,5.3,3.7c3.6-0.1,7.2,0,10.7,0c0.7,0,1.3,0.1,2,0.3
					c2.6,0.7,3.5,3.6,1.7,5.6c-0.4,0.5-0.9,0.9-1.4,1.2c-3.1,2.2-6.2,4.5-9.3,6.7c-2.1,1.5-2.5,2.6-1.7,5.1
					c1.2,3.6,2.3,7.1,3.5,10.7c0.1,0.4,0.3,0.8,0.3,1.2c0.3,1.6,0.1,3-1.4,4c-1.4,1-2.9,0.8-4.2-0.1c-3.1-2.2-6.2-4.5-9.3-6.7
					c-3-2.2-3.8-2.2-6.7,0c-3.1,2.3-6.1,4.5-9.3,6.7c-2.4,1.7-5.1,0.7-5.8-2.2c-0.1-0.5,0-1.1,0.1-1.6c1.3-4.1,2.6-8.2,4-12.3
					c0.6-2,0.3-3.1-1.4-4.4c-3.3-2.4-6.6-4.7-9.8-7.2c-0.8-0.6-1.6-1.5-2-2.5c-0.7-1.9,0.6-4,2.6-4.2c2.6-0.3,5.3-0.1,7.9-0.1
					C287.5,260.5,287.5,260.5,287.5,260.4z M316.3,288.1c-0.2-0.6-0.2-1-0.3-1.3c-0.9-2.8-1.8-5.5-2.7-8.3c-1.3-3.8-1-4.6,2.2-6.9
					c2.2-1.6,4.5-3.3,6.8-5c-0.3-0.1-0.5-0.3-0.6-0.3c-2.8-0.3-5.5-0.7-8.3-0.8c-3.8-0.1-4.3-0.3-5.5-3.9c-0.2-0.6-0.4-1.3-0.6-1.9
					c-0.9-2.6-1.7-5.1-2.7-7.9c-0.2,0.6-0.4,0.9-0.5,1.2c-1,3-2,6.1-3.1,9.1c-1,2.9-1.7,3.4-4.7,3.4c-1.8,0-3.6,0.1-5.4,0
					c-1.1-0.1-1.3,0.6-1.4,1.3c-0.2,0.7-0.8,1.4,0.3,2.1c1.7,1.1,3.4,2.4,5,3.6c1.4,1.1,2,2.4,1.4,4.2c-0.3,0.8-0.5,1.6-0.7,2.4
					c-0.9,2.9-1.8,5.7-2.8,8.9c3-2.2,5.6-4.1,8.3-6c3.2-2.3,3.8-2.3,7,0C310.7,284.1,313.4,286,316.3,288.1z"/>
			</g>
		</g>
		<rect x="175.4" y="173.4" class="st10" width="260.1" height="260.1"/>
	</g>
</g>
<g id="Capa_1" class="st0">
	<g class="st2">
		<g>
			<path class="st17" d="M376.1,347.6H221.3c-8.1,0-14.7-6.6-14.7-14.7v-48.8h169.5L376.1,347.6L376.1,347.6z"/>
			<path class="st17" d="M396,285.7l46.8,27.9c3.1,1.9,3.2,6.3,0.1,8.3L363,371.6c-2.4,1.5-5.6-0.2-5.6-3.1v-73.8
				c0-5.9,4.7-10.6,10.6-10.6h22.6C392.5,284.2,394.4,284.7,396,285.7z"/>
		</g>
		<g>
			<path class="st18" d="M224.4,216.6h154.8c8.1,0,14.7,6.6,14.7,14.7v48.8H224.4V216.6z"/>
			<path class="st18" d="M204.5,278.6l-46.8-27.9c-3.1-1.9-3.2-6.3-0.1-8.3l79.9-49.8c2.4-1.5,5.6,0.2,5.6,3.1v73.8
				c0,5.9-4.7,10.6-10.6,10.6h-22.6C208,280.1,206.1,279.6,204.5,278.6z"/>
		</g>
	</g>
</g>
</svg>
