<?xml version="1.0" encoding="utf-8"?>
<!-- Generator: Adobe Illustrator 23.0.0, SVG Export Plug-In . SVG Version: 6.00 Build 0)  -->
<svg version="1.1" xmlns="http://www.w3.org/2000/svg" xmlns:xlink="http://www.w3.org/1999/xlink" x="0px" y="0px"
	 viewBox="0 0 500 500" style="enable-background:new 0 0 500 500;" xml:space="preserve">
<style type="text/css">
	.st0{display:none;}
	.st1{display:inline;fill:#1E1212;stroke:#000000;stroke-miterlimit:10;}
	.st2{display:inline;fill:none;stroke:#FFFFFF;stroke-width:10;stroke-miterlimit:10;}
	.st3{display:inline;fill-rule:evenodd;clip-rule:evenodd;fill:#FFFFFF;stroke:#FFFFFF;stroke-width:5;stroke-miterlimit:10;}
	.st4{fill-rule:evenodd;clip-rule:evenodd;fill:#FFFFFF;}
	.st5{fill:none;}
	.st6{display:inline;fill:none;stroke:#FFFFFF;stroke-width:12;stroke-linecap:round;stroke-miterlimit:10;}
	.st7{display:inline;fill:none;stroke:#FFFFFF;stroke-width:12;stroke-linecap:round;stroke-linejoin:round;stroke-miterlimit:10;}
	.st8{display:none;fill:none;}
	.st9{display:inline;fill:none;stroke:#FFFFFF;stroke-width:10;stroke-linecap:round;stroke-miterlimit:10;}
	.st10{display:inline;fill:none;stroke:#FFFFFF;stroke-width:11;stroke-linecap:round;stroke-miterlimit:10;}
	.st11{display:inline;}
	.st12{fill-rule:evenodd;clip-rule:evenodd;fill:#FFFFFF;stroke:#FFFFFF;stroke-width:3;stroke-miterlimit:10;}
</style>
<g id="Capa_2" class="st0">
	<rect x="-0.5" y="-0.5" class="st1" width="500" height="501"/>
</g>
<g id="Capa_1">
	<g>
		<g class="st0">
			<path class="st2" d="M1017.82-128.31c1.25,0.03-0.67,0.54-0.5,0.92c0.31,0.7,1.61,1.67,2.32,2.42
				c11.41,12.01,23.69,22.12,38.47,29.3c6.39,3.1,12.99,5.68,19.8,7.66c1.68,0.49,1.83,1.02,0.71,2.38
				c-7.31,8.85-14.57,17.72-21.8,26.64c-0.84,1.04-1.79,1.13-2.94,1.12c-11.45-0.13-22.69-1.86-33.79-4.58
				c-19.79-4.86-37.76-13.43-53.63-26.26c-7.91-6.39-14.98-13.59-20.76-22.01c-0.77-1.12-1.08-2.22-1.09-3.54
				c-0.11-8.86,0.65-17.68,0.9-26.52c0.35-0.74,0.45-1.49,0.24-2.29c0.09-1.26,0.17-2.54,0.26-3.81c0.32-0.45,0.32-0.95,0.21-1.47
				c0.06-0.79,0.11-1.58,0.16-2.37c1.45-11.22,2.75-22.46,4.73-33.61c2.52-14.21,5.59-28.29,9.39-42.21
				c2.26-8.26,4.19-16.66,7.12-24.69c3.09-8.49,5.62-17.17,9.15-25.54c4.91-11.66,8.75-23.11,13.84-34.69
				c3.15-7.18,9.27-14.6,15.86-18.75c15.39-9.71,31.89-16.91,49.27-22.33c13.58-4.24,26.81-6.06,41.14-6.4
				c2.84-0.07,3.94,1.77,5.21,3.45c0.83,1.1-0.69,1.14-1.26,1.33c-3.71,1.21-7.46,2.28-11.18,3.48
				c-22.63,7.29-45.02,13.49-65.11,26.27c-4.35,2.77-11.11,6.79-14.83,9.72c-1.21,0.95-1.58,3.67-0.11,5.14
				c94.98-44.68,190.79-47.55,286.96-0.8c1.91-3.18,0.55-8.99-0.21-9.56c-15.48-11.71-32.21-15.14-50.01-22.73
				c-10.49-4.48-23.1-6.49-34.02-9.76c-2.19-0.66-0.41-2.85,0.72-4.46c2.1-2.97,3.15-2.28,6.77-2.04
				c11.91,0.76,23.54,3.01,34.97,6.34c21.8,6.33,42.61,15.12,61.03,28.34c1.54,1.11,2.8,2.93,3.67,4.6
				c6.84,13.26,11.89,27.67,17.23,41.59c6.68,17.39,12.52,35.06,17.32,53.07c6.43,24.12,10.91,48.58,13.53,73.4
				c0.17,1.58-0.08,3.2,0.54,4.72c0.09,1.26,0.18,2.53,0.26,3.8c-0.21,0.82-0.09,1.61,0.24,2.37c-0.05,2.09,0.04,4.17,0.39,6.24
				c-0.15,1.75-0.16,3.51,0.28,5.24c-0.1,0.57-0.17,1.15,0.21,1.66c-0.47,0.82-0.36,1.63,0.01,2.44c-0.01,3.66-0.04,7.33,0.01,10.99
				c0.01,1.25-0.3,2.27-1.03,3.32c-9.91,14.2-22.81,25.06-37.67,33.66c-19.01,11-39.62,16.88-61.43,18.83
				c-3.1,0.28-6.19,0.45-9.31,0.47c-1.2,0.01-2.07-0.28-2.87-1.27c-7.04-8.66-14.11-17.28-21.23-25.88
				c-1.22-1.47-0.95-1.9,0.83-2.43c16.67-4.92,32.12-12.31,45.7-23.29c6.07-4.91,11.82-10.17,16.15-16.8
				c-0.55-0.56-0.99-0.25-1.47,0.06c-16.57,10.68-34.6,18.21-53.12,24.7c-19.03,6.68-38.61,10.98-58.64,13.05
				c-16.45,1.7-32.94,1.74-49.43,0.25c-21.2-1.91-41.87-6.32-62.08-12.95c-19.69-6.46-38.44-14.95-56.08-25.84
				c-0.22-0.13-0.27-0.11-0.14,0.06C1017.66-128.2,1017.76-128.27,1017.82-128.31z M1259.26-185.33
				c-0.35-10.35-3.29-19.09-9.54-26.63c-13.65-16.45-37.38-17.76-52.73-2.89c-13.51,13.08-16.16,35.03-6.17,51.02
				c8.69,13.9,24.34,20.72,39.14,17.07C1247.33-151.05,1259.5-167.35,1259.26-185.33z M1126.57-185.37c0-8.25-2.03-15.51-6.23-22.24
				c-11.73-18.81-36.15-23.27-53.15-9.72c-16.84,13.42-20.05,39.5-6.79,56.53c9.47,12.16,21.92,17.42,37.1,13.9
				C1114.95-150.94,1126.55-166.77,1126.57-185.37z"/>
		</g>
		<g class="st0">
			<path class="st3" d="M487.68-273.06c4.38-17.38,9.91-34.13,21.74-48.29c19.72-23.6,45.08-35.9,75.41-36.11
				c79.5-0.54,159-0.53,238.5-0.06c49,0.29,87.82,34.58,95.78,83c0.19,1.18,1.01,2.26,1.54,3.38c0,45.54,0,91.08,0,136.62
				c-3.79,17.59-9.22,34.48-20.75,48.78c-20.2,25.06-46.73,37.47-78.55,37.62c-78.16,0.36-156.31,0.39-234.47,0.03
				c-57.79-0.26-93.31-43.06-97.78-82.9c-0.14-1.21-0.93-2.35-1.42-3.52C487.68-180.69,487.68-226.88,487.68-273.06z M704.17-65.48
				c39.12,0,78.24,0.26,117.35-0.07c47.05-0.39,81.61-35.51,81.68-82.51c0.05-36.87,0.19-73.74-0.04-110.62
				c-0.29-45.65-34.36-80.98-79.87-81.32c-79.51-0.59-159.03-0.62-238.55,0.03c-45.62,0.37-79.59,35.96-79.63,81.39
				c-0.04,36.23-0.03,72.46-0.01,108.69c0.03,50.1,34.26,84.28,84.59,84.38C627.86-65.42,666.01-65.48,704.17-65.48z"/>
			<path class="st3" d="M655.45-203.79c0-12.82-0.09-25.63,0.03-38.45c0.11-12.4,5.11-15.89,16.17-11.29
				c32.71,13.62,65.46,27.16,97.98,41.21c3.73,1.61,8.5,6.28,8.49,9.52c-0.01,3.24-4.79,7.88-8.52,9.5
				c-32.52,14.05-65.27,27.6-97.98,41.21c-11.06,4.6-16.03,1.11-16.13-11.32C655.37-176.87,655.45-190.33,655.45-203.79z
				 M673.43-171.85c24.84-10.37,48.62-20.3,74.26-31.01c-25.78-10.73-49.48-20.59-74.26-30.9
				C673.43-212.61,673.43-193.06,673.43-171.85z"/>
		</g>
		<g>
			<path class="st4" d="M362.46,156.21c-45.18-20.1-70.45,19.34-70.45,19.34c-12.45,18.19-8.7,19.39-8.7,19.39
				c4.94-9.54,20.73-18.67,41.07-23.34c1.39-4.36,5.47-7.52,10.29-7.52c3.68,0,6.94,1.84,8.89,4.66c12.13-0.84,23.1,0.28,31.41,2.98
				l7.98-9C381.42,162.72,362.46,156.21,362.46,156.21z"/>
			<circle class="st4" cx="334.83" cy="174.99" r="6.65"/>
			<path class="st4" d="M345.52,173.14c0.07,0.51,0.11,1.03,0.11,1.56c0,5.97-4.84,10.81-10.81,10.81c-3.93,0-7.37-2.1-9.27-5.24
				c-3.28,2.24-6.06,5.06-8.03,8.63c0,0-22.72,35.23-19.14,71.99c0,0,13.79-14.29,26.55-4.85c0,0-11.49-52.59,45.69-80.41l1.02-2.89
				C371.65,172.72,358.96,171.05,345.52,173.14z"/>
			<path class="st4" d="M387.73,176.63h-14.29c0,0-51.44,25.78-38.61,75.31C334.83,251.94,352.51,205.48,387.73,176.63z"/>
			<path class="st4" d="M390.28,174.99c0,0,22.46-15.72,85.77-27.46c0,0-56.16-0.51-90.62,15.32l-8.81,10.77
				C376.63,173.62,386.2,172.72,390.28,174.99z"/>
			<path class="st4" d="M318.55,181.64c0,0-24.51,27.67-23.74,73.62c0,0-4.93-4.85-12.8-3.32c0,0,13.09-43.04-140.83-178.01
				c0,0,99.44,70.62,141.59,126.35C282.77,200.29,302.28,177.78,318.55,181.64z"/>
			<path class="st4" d="M216.44,158.76c0,0-100.58-106.19-188.65-126.62C27.8,32.15,46.18,87.8,216.44,158.76z"/>
			<path class="st4" d="M239.55,188.38c0,0-20.68-23.6-29.48-27.12c0,0-84.62-29.55-134.4-70.14l-18-3.06
				C57.67,88.05,100.55,164.6,239.55,188.38z"/>
			<path class="st4" d="M253.71,208.54c0,0-13.79-15.06-22.46-16.08c0,0-61.78-10.47-106.19-38.29l-21.19,1.53
				C103.87,155.7,153.9,221.81,253.71,208.54z"/>
			<path class="st4" d="M264.61,224.63c0,0-9.1-10.98-18.04-10.34c0,0-52.59,3.96-85.77-12.89c0,0-18.05,3.57-19.62,2.55
				c0,0,43.1,44.93,119.69,23.49C260.86,227.43,264.05,226.52,264.61,224.63z"/>
			<path class="st4" d="M273.82,237.77c0,0-5.02-5.06-9.21-4.54c0,0-47.46,12.58-84.41-2.16l-14.55,10.15
				c0,0,58.2,32.74,108.17-2.87"/>
			<path class="st4" d="M275.54,254.05c0,0-4.79-5.17-9.96-3.83c0,0-32.16,15.7-67.39,8.04l-11.49,10.72
				C186.7,268.98,244.33,288.51,275.54,254.05z"/>
			<path class="st4" d="M330.1,249.99c0,0,37.14,66.27-88.83,127.54c0,0-17.23-82.71,59.35-111.43c0,0,11.11-15.83,27.19-5.23
				L330.1,249.99z"/>
			<path class="st4" d="M281.86,256.53c0,0-23.74,19.64-38.86,17.96c0,0-42.04,35.65-47.39,91.99c8.74-1.63,23.35-6.6,41.29-21.3
				c4.22-29.42,18-66.38,58.94-81.57C295.83,263.62,290.81,256.3,281.86,256.53z"/>
			<g>
				<path class="st4" d="M235.23,372.83c-0.12-6.25,0.06-14.26,1.08-23.16c-6.19,5.03-25.91,20.21-41.71,23.04
					c-1.15,6.36-3.41,17.71-6.81,30.27C195.16,401.55,211.36,395.75,235.23,372.83z"/>
				<path class="st4" d="M185.94,409.54c-5.48,18.59-13.36,38.31-23.74,47.64c0,0,17.61,0.38,73.9-70.84c0,0-0.49-3.63-0.75-9.68
					C230.24,382.14,205.76,407.35,185.94,409.54z"/>
			</g>
		</g>
		<rect x="27.8" y="28.74" class="st5" width="452.98" height="451.26"/>
	</g>
	<g id="Bancos" class="st0">
		<rect x="91.13" y="157.73" class="st6" width="49.98" height="222.61"/>
		<rect x="221.13" y="157.73" class="st6" width="49.98" height="222.61"/>
		<rect x="353.02" y="157.73" class="st6" width="49.99" height="222.61"/>
		<path class="st6" d="M349.31,462.25H48.12c-7.23,0-13.09-5.99-13.09-13.37v-10.03c0-7.39,5.86-13.38,13.09-13.38h405.7
			c7.23,0,13.09,5.99,13.09,13.38v10.03c0,7.38-5.86,13.37-13.09,13.37h-73.6"/>
		<path class="st6" d="M431.12,412.1c0,7.39-5.99,13.37-13.37,13.37H76.72c-7.39,0-13.37-5.98-13.37-13.37v-18.39
			c0-7.39,5.99-13.38,13.37-13.38h341.03c7.39,0,13.37,5.99,13.37,13.38V412.1z"/>
		<line class="st7" x1="145.1" y1="91.02" x2="143.28" y2="92.06"/>
		<path class="st7" d="M145.1,91.02"/>
		<path class="st7" d="M148.74,89.75"/>
		<polyline class="st7" points="123.45,104.22 31.52,156.81 246.68,156.81 461.83,156.81 354.25,95.27 246.68,33.73 165.09,80.4 		
			"/>
		<path class="st7" d="M123.45,104.22"/>
		<path class="st7" d="M133.01,98.75"/>
	</g>
	<rect x="16" y="20.88" class="st8" width="459.12" height="459.12"/>
	<g id="nectar" class="st0">
		<path class="st3" d="M470.81,313.57c-12.95-16.87-29.58-28.94-48.56-37.92c-2.98-1.41-6.04-2.68-9.95-4.4
			c1.39-1,2.29-1.49,2.99-2.18c30.98-30.62,52.41-66.5,61.2-109.92c3-14.82,4.72-29.55,4.78-44.57c0.02-5.64-2.02-7.64-7.72-7.66
			c-11.92-0.06-23.75,0.86-35.54,2.62c-33.5,5.02-64.67,16.44-93.33,34.66c-3.26,2.07-3.9,1.3-4.7-1.98
			c-3.57-14.47-8.68-28.34-16.26-41.2c-0.69-1.4-1.26-2.86-2.08-4.17c-6.42-10.18-13.36-19.89-21.39-28.94
			c-13.89-15.66-30.09-28.07-48.06-38.39c-2.8-1.61-5.45-2.14-8.41-0.5c-15.88,8.79-30.34,19.49-43.16,32.43
			c-2.57,2.59-3.05,5.46-0.6,8.39c2.08,2.49,6.1,2.8,8.87,0.72c1.24-0.94,2.31-2.11,3.43-3.2c9.86-9.55,20.7-17.79,32.46-24.83
			c1.86-1.12,3.29-1.38,5.33-0.15c15.31,9.21,29,20.38,41.02,33.71c9.02,9.99,16.24,21.21,23.09,32.73c0.46,1.04,0.87,2.1,1.37,3.11
			c14.61,29.74,20.13,61.11,14.6,93.86c-8.61,51.01-36.55,88.74-79.9,115.4c-1.88,1.15-3.32,1.33-5.34,0.11
			c-22.48-13.54-41.21-31.08-55.84-53.03c-7.04-10.56-12.39-22-17.08-33.77c-1.67-0.15-2.93,0.44-4.05,1.31
			c1.12-0.87,2.38-1.46,4.05-1.31c-3.6-12.25-7.38-24.45-8.32-37.32c-0.86-11.74-1.28-23.66,0.29-35.17
			c2.16-15.83,6.12-31.46,13.42-45.95c1.99-3.95,0.78-7.16-2.6-8.66c-3.45-1.54-7.08-0.23-8.82,3.55c-2.14,4.67-4,9.46-5.91,14.22
			c-2.68,6.68-4.23,13.74-6.32,20.99c-4.84-2.92-9.21-5.69-13.7-8.25c-23.71-13.5-49.11-22.32-75.83-27.21
			c-14.25-2.61-28.66-3.94-43.17-3.72c-5.12,0.08-7.14,2.18-7.26,7.31c-0.23,10.35,0.44,20.65,1.96,30.86
			c7.21,48.43,28.77,89.37,63.43,123.41c0.96,0.95,2.43,1.57,2.52,3.31c-1.71,0.71-3.42,1.38-5.1,2.12
			c-25.26,11.01-45.8,27.76-60.93,51.11c-1.63,2.52-2.82,5-0.96,7.93c6.6,10.41,14.02,20.12,23.59,27.98
			c1.13,1.08,2.19,2.22,3.38,3.21c22.5,18.99,48.54,29.56,77.55,32.53c22.28,2.28,44.08-0.44,65.07-8.48
			c2.93-1.13,4.14-1.97,4.85,2.03c6.02,33.99,25.12,58.4,54.41,75.25c2.88,1.66,5.54,1.4,8.4-0.26
			c29.03-16.76,47.88-41.04,53.96-74.69c0.59-3.27,1.45-3.57,4.46-2.41c15.76,6.06,32.15,9.02,49.01,9.32
			c5.07,0.09,8.27-2.22,8.33-5.95c0.06-3.57-2.82-5.85-7.74-6.1c-1.13-0.06-2.27-0.12-3.4-0.17c-26.91-1.08-51.37-9.43-73.13-25.52
			c-8.98-6.64-17.03-14.3-24.09-24.09c2.53-0.2,4.44-0.4,6.36-0.5c10.07-0.56,20.03-1.96,29.91-3.94
			c38.71-7.75,73.71-23.73,104.6-48.66c1.66-1.34,3.03-1.51,4.96-0.81c24.71,9.08,45.29,23.69,60.53,45.64
			c1.5,2.16,1.28,3.32-0.05,5.13c-3.47,4.72-7.09,9.31-11.14,13.54c-17.01,17.72-37.5,29.28-61.09,35.4
			c-4.75,1.23-6.88,4.13-5.85,7.83c0.92,3.3,4.55,5.02,8.71,3.99c2.74-0.68,5.48-1.44,8.17-2.31
			c31.31-10.09,56.57-28.41,74.93-56.18c2.27-3.44,2.57-6.48,0.02-9.79C476.48,321.21,473.71,317.35,470.81,313.57z M70.69,240.66
			c-19.04-24.04-32.24-50.92-39.28-80.96c-2.87-12.25-3.97-24.65-4.9-37.13c-0.2-2.67,0.36-3.76,3.36-3.62
			c27.8,1.29,54.62,7.02,80.35,17.82c13.48,5.66,26.21,12.69,38.45,20.71c2.38,1.56,2.88,3.06,2.56,5.92
			c-2.93,26.8,0.3,52.82,10.15,77.94c1.11-0.22,1.89-0.87,2.6-1.62c-0.7,0.75-1.48,1.4-2.6,1.62c10,26.82,29.17,56.09,61.53,80.27
			c-16.31,1.02-65.66-10.27-103.43-36.04C101.18,272.87,84.61,258.24,70.69,240.66z M127.49,385.2
			c-19.29-0.55-37.44-5.94-54.55-14.41c-9.71-4.81-18.53-11.49-26.71-18.8c-5.99-6.27-11.98-12.53-16.98-19.69
			c-1.25-1.8-1.33-3.08-0.04-4.92c15.55-22.07,36.42-36.83,61.4-46.04c2.04-0.75,3.2,0.51,4.49,1.49
			c5.41,4.12,10.61,8.55,16.58,11.88c23.86,16.47,50.08,27.45,78.07,34.29c13.63,3.33,27.45,5.44,41.46,6.22
			c1.25,0.07,2.49,0.31,3.72,0.47c0.2,1.76-1,2.52-1.78,3.42C205.33,371.76,169.81,386.42,127.49,385.2z M276.24,369.83
			c4.71,3.45,9.49,6.81,14.71,9.38c2.81,1.38,3.39,3.12,2.98,6.05c-3.48,24.58-14.93,44.72-34.22,59.76
			c-14.48,11.3-9.56,11.02-24.46,0.02c-12.38-9.14-21.22-21.56-27.61-35.36c-3.65-7.88-5.94-16.61-6.62-25.54
			c-0.14-1.8-0.16-3.16,1.81-4.21c17.67-9.49,32.46-22.43,44.69-38.74C255.82,352.18,265.28,361.78,276.24,369.83z M303.73,316.94
			c-9.61,2.49-19.37,4.23-29.25,5.22c-0.75,0.07-1.61,0.51-2.58-0.46c8.68-6.5,16.86-13.48,24.32-21.3
			c23.88-25.02,39.52-54.47,45.95-88.66c3.03-16.17,3.85-32.55,1.59-48.94c-0.37-2.66,0.44-3.83,2.41-5.15
			c28.41-18.97,59.37-31.11,93.11-36.05c8.26-1.21,16.54-2.02,24.87-2.61c3.52-0.25,4.52,0.64,4.36,4.31
			c-1.52,34.29-10.83,66.22-28.79,95.33C407.85,270.29,361.63,301.94,303.73,316.94z"/>
		<path class="st3" d="M193.34,87.39c-0.07,4-4.74,8.73-8.55,8.65c-3.48-0.07-6.09-2.53-6.15-5.79c-0.07-3.97,4.55-8.98,8.28-8.98
			C190.38,81.27,193.4,84.15,193.34,87.39z"/>
	</g>
	<rect x="10" y="12" class="st8" width="475" height="480"/>
	<g id="operaciones" class="st0">
		<path class="st9" d="M303.08,452.53H99.22c-7.78,0-14.09-6.31-14.09-14.09V45.32c0-7.78,6.31-14.09,14.09-14.09h32.99"/>
		<path class="st9" d="M189.16,31.22h209.96c7.78,0,14.09,6.31,14.09,14.09v393.12c0,7.78-6.31,14.09-14.09,14.09h-54.36h-6.19"/>
		<polyline class="st9" points="139.18,123.01 162.7,148.21 211.35,95.18 		"/>
		<polyline class="st9" points="139.18,207.36 162.7,232.56 211.35,179.53 		"/>
		<polyline class="st9" points="139.18,287.26 162.7,312.46 211.35,259.44 		"/>
		<circle class="st9" cx="176.11" cy="370" r="19.96"/>
		<line class="st9" x1="231.31" y1="119.33" x2="365.2" y2="119.33"/>
		<line class="st9" x1="231.31" y1="206.14" x2="365.2" y2="206.14"/>
		<line class="st9" x1="231.31" y1="288.31" x2="365.2" y2="288.31"/>
		<line class="st9" x1="231.31" y1="370" x2="365.2" y2="370"/>
		<line class="st9" x1="159.67" y1="31.22" x2="161.43" y2="31.22"/>
	</g>
	<rect x="17.38" y="20.96" class="st5" width="446.04" height="446.04"/>
	<g id="referidos_1_" class="st0">
		<line class="st10" x1="203.75" y1="35.98" x2="210.46" y2="35.98"/>
		<g id="referidos" class="st11">
			<path class="st12" d="M172.77,408.97c0.3-3.83,0.34-7.39,0.91-10.86c1.1-6.72,4.42-12.39,9.17-17.2
				c6.69-6.76,13.45-13.45,20.22-20.12c2.25-2.22,3.37-4.76,3.36-7.96c-0.06-16.36-0.06-32.72,0-49.09c0.01-2.52-1-4.02-3.23-5.08
				c-22.41-10.57-39.22-26.96-50.8-48.84c-0.87-1.65-2.86-3.09-4.65-3.81c-8.06-3.21-16.45-5.66-24.34-9.24
				c-30.85-13.98-48.34-38.17-53.48-71.47c-1.01-6.54-1.7-13.12,0.24-19.64c4.06-13.6,15.19-21.51,30.52-21.56
				c12.33-0.04,24.66-0.01,36.99-0.01c0.87,0,1.75,0,2.78,0c0-10.76,0-21.36,0-32.36c-0.79,0-1.63,0.01-2.47,0
				c-5.71-0.12-11.48,0.21-17.13-0.46c-9.79-1.14-16.17-7.47-16.78-17.29c-0.57-9.06-0.45-18.22,0.23-27.27
				c0.71-9.55,8.93-16.44,18.6-16.48c15.72-0.07,29.42-0.02,45.14-0.02c3.71,0,7.42-0.02,11.12,0.01c4.3,0.03,6.88,2.32,6.88,6.06
				c0,3.78-2.53,6.1-6.82,6.11c-18.54,0.02-35.06,0.01-53.6,0.01c-7.09,0-9.61,2.51-9.62,9.59c-0.01,5.88-0.01,11.77,0,17.65
				c0.01,7.29,2.58,9.89,9.92,9.89c18.22,0,36.43-0.09,54.65-0.1c63.84-0.01,127.68,0,191.52-0.05c1.94,0,4.02-0.45,5.78-1.24
				c2.41-1.09,3.36-3.48,3.37-6.01c0.04-7.57,0.12-15.15-0.18-22.71c-0.18-4.49-2.89-6.75-7.38-7.02c-0.8-0.05-1.61-0.01-2.42-0.01
				c-45.78,0-86.53,0-132.31,0c-1.05,0-2.11,0.05-3.14-0.07c-3.47-0.38-5.57-2.77-5.5-6.17c0.07-3.27,2.19-5.54,5.55-5.89
				c0.88-0.09,1.77-0.06,2.66-0.06c46.35,0,87.66,0,134,0c12.97,0,20.96,7.96,20.93,20.92c-0.02,7.81,0.34,15.66-0.33,23.42
				c-0.86,10.08-9.01,17.02-19.17,17.17c-5.63,0.08-11.26,0.01-17.07,0.01c0,10.79,0,21.39,0,32.36c0.78,0,1.62,0,2.47,0
				c13.14,0,26.28-0.03,39.42,0.01c12.97,0.04,24.58,8.53,27.98,20.57c1.97,6.95,1.69,14.07,0.62,21.1
				c-2.82,18.56-9.74,35.31-22.63,49.26c-11.24,12.17-25.06,20.29-40.62,25.65c-4.56,1.57-9.09,3.22-13.66,4.77
				c-3,1.02-5.08,2.98-6.53,5.74c-11.05,21.03-27.36,36.64-48.74,46.89c-3.34,1.6-4.56,3.81-4.52,7.36
				c0.16,13.38,0.18,26.75,0.23,40.13c0.01,2.01-0.15,4.02-0.18,6.03c-0.06,3.81,1.24,7,4.04,9.72c6.25,6.06,12.3,12.32,18.56,18.36
				c7.49,7.23,11.2,15.96,10.97,26.37c-0.02,0.79,0,1.59,0,2.57c4.36,0.26,8.52,0.41,12.67,0.77c7.15,0.62,11.93,5.78,11.98,12.99
				c0.07,10.31,0.07,20.63,0,30.94c-0.05,7.87-5.59,13.27-13.78,13.33c-9.03,0.07-18.05-0.06-27.08-0.08c-1.28,0-2.57,0.1-3.85,0.16
				c-3.94,0.17-6.98-2.67-6.9-6.42c0.09-3.69,3.08-6.16,6.96-6.12c10.39,0.13,20.78,0.13,31.18,0.17c0.3,0,0.6-0.11,1.01-0.19
				c0-10.83,0-21.58,0-32.46c-58.54,0-116.94,0-175.51,0c0,10.84,0,21.59,0,32.66c0.91,0,1.76,0,2.62,0c39.42,0,69.76,0,109.18,0
				c0.64,0,1.29,0,1.93-0.04c4.15-0.21,6.83,2.07,6.92,5.91c0.1,3.86-2.47,6.35-6.56,6.35c-31.76-0.01-54.44-0.04-86.2-0.02
				c-8.38,0-16.76,0.11-25.13,0.31c-9.92,0.23-16.16-6.61-15.67-16.55c0.42-8.69,0.07-17.41,0.17-26.11
				c0.02-2.06,0.24-4.21,0.84-6.18c1.75-5.73,6.75-8.96,13.67-9.07C166.03,408.93,169.33,408.97,172.77,408.97z M153.06,91.98
				c0,1.1,0,1.97,0,2.85c0,11.44,0.01,22.89-0.02,34.34c0,1.28-0.1,2.6-0.43,3.82c-3.55,13.23-4.87,26.76-5.02,40.39
				c-0.15,14.14,1.64,28.11,5.21,41.82c5.36,20.58,13.73,39.53,29.52,54.44c22.28,21.04,48.77,29.96,79.07,25.9
				c31.6-4.24,55.36-20.74,70.9-48.64c18.19-32.64,22.22-67.43,15.05-103.79c-0.9-4.57-2.69-9.04-2.97-13.62
				c-0.5-8.27-0.17-16.59-0.19-24.88c0-4.16,0-8.32,0-12.62C280.41,91.98,216.93,91.98,153.06,91.98z M278.58,305.59
				c-20.05,3.57-39.8,3.53-59.74,0.05c0,1.59,0,2.55,0,3.5c0,14.42,0,28.85,0,43.28c0,6.79-2.44,12.5-7.31,17.28
				c-6.91,6.76-13.73,13.62-20.53,20.49c-5.12,5.18-6.28,11.52-5.2,18.6c41.98,0,83.84,0,125.86,0c0.9-7.17-0.34-13.56-5.52-18.79
				c-7.2-7.27-14.39-14.55-21.66-21.76c-4-3.97-5.91-8.71-5.9-14.3c0.03-11.68,0.01-23.37,0.01-35.06
				C278.58,314.69,278.58,310.51,278.58,305.59z M139.03,136.6c-0.65-0.15-0.88-0.24-1.11-0.24c-12.97-0.01-25.96-0.19-38.93,0.04
				c-9.17,0.17-15.62,5.1-16.93,13.51c-0.8,5.15-0.66,10.69,0.26,15.83c5.33,29.8,22.18,50.44,50.3,61.76
				c3.82,1.53,7.79,2.67,12.23,4.17C134.36,200.12,132.73,168.65,139.03,136.6z M353.17,231.09c0.79-0.09,1.18-0.08,1.54-0.19
				c30.61-9.03,51.35-27.83,59.11-59.54c1.64-6.7,2.64-13.5,1.8-20.35c-1.1-8.91-8.56-14.69-18.62-14.76
				c-11.36-0.08-22.73-0.03-34.09,0c-1.39,0-2.79,0.27-4.34,0.44C365.86,168.78,364.26,200.07,353.17,231.09z"/>
			<path class="st12" d="M219.64,175.92c3.3,0,6.61-0.03,9.91,0.01c3.55,0.04,5.31-1.15,6.45-4.6c2.23-6.71,4.41-13.44,6.62-20.16
				c0.82-2.5,2.13-4.54,5.02-4.93c3.34-0.44,5.57,0.95,6.77,4.45c2.13,6.24,4.18,12.5,6.18,18.78c1.8,5.63,3.06,6.5,9.04,6.4
				c6.13-0.1,12.25-0.04,18.37,0c1.12,0,2.26,0.19,3.34,0.46c4.53,1.15,6.07,6.15,2.96,9.66c-0.69,0.78-1.5,1.47-2.34,2.09
				c-5.27,3.84-10.56,7.66-15.87,11.46c-3.59,2.57-4.24,4.47-2.85,8.7c2.01,6.11,4.02,12.22,6.03,18.33
				c0.23,0.68,0.46,1.38,0.59,2.09c0.48,2.71,0.14,5.13-2.37,6.83c-2.48,1.67-4.93,1.37-7.2-0.24c-5.32-3.78-10.59-7.62-15.83-11.51
				c-5.1-3.78-6.43-3.8-11.48-0.07c-5.25,3.87-10.52,7.72-15.85,11.48c-4.17,2.95-8.76,1.21-9.84-3.68c-0.19-0.88-0.07-1.92,0.2-2.8
				c2.21-7.05,4.46-14.1,6.76-21.13c1.11-3.39,0.53-5.34-2.45-7.5c-5.6-4.07-11.27-8.05-16.79-12.24c-1.4-1.07-2.78-2.61-3.35-4.22
				c-1.13-3.18,1.06-6.9,4.47-7.23c4.46-0.43,8.99-0.1,13.49-0.1C219.64,176.13,219.64,176.02,219.64,175.92z M268.91,223.36
				c-0.28-1.06-0.4-1.67-0.59-2.25c-1.56-4.73-3.12-9.47-4.69-14.19c-2.17-6.52-1.76-7.79,3.75-11.79
				c3.83-2.78,7.64-5.59,11.65-8.52c-0.55-0.24-0.82-0.46-1.11-0.48c-4.72-0.49-9.43-1.19-14.16-1.36
				c-6.56-0.24-7.31-0.58-9.45-6.66c-0.37-1.06-0.69-2.14-1.04-3.21c-1.46-4.38-2.93-8.75-4.54-13.56
				c-0.39,0.98-0.61,1.49-0.79,2.01c-1.74,5.18-3.46,10.36-5.22,15.54c-1.66,4.91-2.84,5.76-8.08,5.82
				c-3.06,0.03-6.13,0.13-9.18-0.04c-1.86-0.11-2.15,1.07-2.45,2.31c-0.3,1.21-1.29,2.39,0.52,3.54c2.98,1.9,5.75,4.14,8.6,6.24
				c2.48,1.83,3.45,4.15,2.42,7.18c-0.47,1.37-0.83,2.77-1.26,4.15c-1.52,4.88-3.04,9.77-4.76,15.26
				c5.07-3.68,9.61-6.98,14.17-10.27c5.44-3.92,6.57-3.91,11.95-0.01C259.24,216.41,263.88,219.73,268.91,223.36z"/>
		</g>
	</g>
	<rect x="27.88" y="27" class="st5" width="445.13" height="445.13"/>
</g>
</svg>
