<svg xmlns="http://www.w3.org/2000/svg" viewBox="0 0 842.75 1076.67"><defs><style>.cls-1{fill:#22242b;}</style></defs><title>formaNegra</title><g id="Capa_2" data-name="Capa 2"><path class="cls-1" d="M108.2,0s-133.78,35.59,0,261.49S302,558.61,198.43,694s-92.7,328.65,30.53,357.31,288.23,56.16,640-56.44V0Z" transform="translate(-26.24)"/></g><g id="Capa_3" data-name="Capa 3"><path class="cls-1" d="M86.21,401.57a60.21,60.21,0,0,1,53.68,7.95C175.17,434,239.5,495,175.26,583.6c-85,117.19-85,176.93-98.81,211.4S7.51,815.68,32.79,645.64C54.45,499.89,32.22,420,86.21,401.57Z" transform="translate(-26.24)"/><path class="cls-1" d="M42.13,227.07a18.82,18.82,0,0,1,8.25,9.77C54.24,247,66.27,273.42,99.43,317c43.66,57.45-18.39,39.07-23.37,37.15S38.91,327,41.6,284.87C43.94,248,30.55,220.53,42.13,227.07Z" transform="translate(-26.24)"/></g></svg>