<?xml version="1.0" encoding="utf-8"?>
<!-- Generator: Adobe Illustrator 23.0.0, SVG Export Plug-In . SVG Version: 6.00 Build 0)  -->
<svg version="1.1" xmlns="http://www.w3.org/2000/svg" xmlns:xlink="http://www.w3.org/1999/xlink" x="0px" y="0px"
	 viewBox="0 0 600 600" style="enable-background:new 0 0 600 600;" xml:space="preserve">
<style type="text/css">
	.st0{fill:#FC3947;}
	.st1{fill:#FEFEFE;}
	.st2{fill:#FFFFFF;}
	.st3{display:none;}
	.st4{display:inline;}
	.st5{display:inline;fill:none;stroke:#FFFFFF;stroke-width:10;stroke-miterlimit:10;}
	.st6{display:inline;fill-rule:evenodd;clip-rule:evenodd;fill:#FFFFFF;stroke:#FFFFFF;stroke-width:5;stroke-miterlimit:10;}
	.st7{fill-rule:evenodd;clip-rule:evenodd;fill:#FFFFFF;}
	.st8{fill:none;}
	.st9{display:inline;fill:none;stroke:#FFFFFF;stroke-width:12;stroke-linecap:round;stroke-miterlimit:10;}
	.st10{display:inline;fill:none;stroke:#FFFFFF;stroke-width:12;stroke-linecap:round;stroke-linejoin:round;stroke-miterlimit:10;}
	.st11{display:none;fill:none;}
	.st12{display:inline;fill:none;stroke:#FFFFFF;stroke-width:10;stroke-linecap:round;stroke-miterlimit:10;}
	.st13{display:inline;fill:none;stroke:#FFFFFF;stroke-width:11;stroke-linecap:round;stroke-miterlimit:10;}
	.st14{fill-rule:evenodd;clip-rule:evenodd;fill:#FFFFFF;stroke:#FFFFFF;stroke-width:3;stroke-miterlimit:10;}
	.st15{fill-rule:evenodd;clip-rule:evenodd;fill:#29ABE2;}
	.st16{fill-rule:evenodd;clip-rule:evenodd;fill:#0071BC;}
</style>
<g id="Capa_3">
	<circle class="st0" cx="297.2" cy="287.1" r="179"/>
	<g id="_2251256727504_3_">
		<path class="st1" d="M237,253.5c-2.7,1.6-2.6,3.9-8.6,1.5l0.1,5.7c0.3,12.2,10.4,21.8,22.5,21.5c12.4-0.4,21.3-10.6,21-23.2
			s0.2-12.8-11.1-12.6c-3,0.1-5.3-0.1-6,2.6c-1.1,4.8,4.3,4.3,6.8,4.2c3.3-0.1,2.7,0.3,2.8,3.5c0.1,4.4-7.7-1.1-14.2,8.6
			c-0.3,0.4-0.3,0.7-0.8,0.8c-3.4,1.1-0.3-6,7.8-8.6c1.4-0.5,4.1-0.7,5.1-1.1l0-1.2c-1.9-0.1-10.2,1.1-9.5-6.1c0.6-6,7.4-4.9,10.9-5
			c1.3-3.8,2.6-10.1,3.5-14.3c0.9-3.8,4.4-12.4-1.8-12.3c-2.9,0.1-3.4,2.3-4,4.8c-0.5,2.5-1.2,4.8-1.8,7.3c-0.6,2.4-1.1,4.6-1.7,7.1
			c-0.6,2.5-1,6-2.3,6.9c-1.8-0.6-1.3-2.2-1.3-4.4l-0.4-17.1c-0.1-3.6,0.3-8.1-3.9-8s-3.5,4.6-3.5,8.1c0.2,7.7,0.4,15.3,0.5,23
			c0.1,4.2,0.5,6.9-2.1,9.1C242,256.9,238.7,255.5,237,253.5L237,253.5z"/>
		<path class="st1" d="M245.1,249l-0.3-12.2c-0.1-4-3.7-5.9-6.2-3.5c-2.1,2-1.2,6.6-1.1,9.9c0.1,3.5-0.5,8,1.8,9.7
			C242.3,255.1,245.2,252.6,245.1,249L245.1,249z"/>
		<path class="st1" d="M230.4,235.5c-3.4,1.4-2.4,4.9-2.3,10.6c0,1.9-0.2,4.6,0.8,6.1c0.7,1.1,2.4,2.2,4.5,1.4
			c3.3-1.4,2.2-6.5,2.1-10.6c0-1.7,0.1-5-0.6-6.2C234.2,235.7,232.2,234.8,230.4,235.5z"/>
	</g>
	<path id="piedra_1_" class="st2" d="M307,238.4l7.5-0.1c0-2.3,0.4-6.7-0.7-8.3c-0.9-1.3-2.7-2-4.3-1.3
		C306.1,229.9,307,234.6,307,238.4z M303.5,246.7c-0.1-2.5-1.1-3.5,0.5-5.9c1.4-2.1,0.9-2,0.9-6.6c0-2.1,0.3-5.3-0.7-6.8
		c-0.9-1.3-3.3-2.2-5.1-0.9c-2.7,2-1.7,8.9-1.7,12.8C297.4,244.6,297.6,248.8,303.5,246.7L303.5,246.7z M290.3,226.2
		c-3.5,1.7-2.5,5.5-2.5,12.2c0,1.7-0.3,5.3,0.4,6.8c0.8,1.8,3,2.7,4.8,1.9c3.4-1.4,2.3-8.1,2.3-12.2c0-1.8,0.3-5.3-0.4-6.8
		S292.4,225.2,290.3,226.2L290.3,226.2z M280.7,228.7c-1.7,0.8-2.4,1.4-2.4,3.9c0,2.2-0.4,11.4,0.5,12.9c0.9,1.6,2.8,2.3,4.6,1.7
		c3.5-1.2,2.5-6.9,2.5-10.7c0-2,0.4-4.7-0.6-6.2C284.4,228.9,282.7,227.9,280.7,228.7L280.7,228.7z M314.3,252.5
		c-1.1,0.7-3.6,0.6-5.1,0.9c-4.4,1.1-6.6,2.9-8.9,6.1c-1.3,1.8-2.9,0.6-1.7-1.3c4.4-7.1,12.7-6.7,14-7.6l0-1c-1.2-0.4-2.7-0.1-4-0.2
		c-2.4-0.1-2.2-0.7-3.8-1.2c-3.4,1.9-6.3,1.5-8.2-1.2c-1.4,0.8-2.2,2.3-4.8,2.4c-2.7,0.1-3.7-1.5-5.2-2.3c-0.7,0.9-1.7,2-3.4,2.2
		c-2.2,0.4-3.3-0.4-4.8-1c-0.4,6.4-0.1,10.8,2.3,16c5.3,11.1,20,15.6,31,8.9c2.3-1.4,3.3-2.5,5-4.3c2.5-2.6,5.2-7.7,5.6-12.6
		c0.3-2.9,0.1-6.4,0.1-9.3c0-3.2-0.8-5.1-3.2-6.2c-1.7-0.8-6.2-0.4-8.4-0.5c-2.9,0-5.6,0.3-5.7,3.5c0,3.2,2.6,3.6,5.7,3.6
		c1.4,0,3.3-0.4,3.7,0.7c0.2,0.5,0.2,1.6,0.2,2.2C314.7,250.9,314.7,251.9,314.3,252.5L314.3,252.5z"/>
	<path id="papel_1_" class="st1" d="M345.6,248.3c-2,0.2-1.7-0.6-1.7-2.6l0-13c0-4.7,1.6-14.3-4-13.8c-4.4,0.4-3.2,7.6-3.2,14.1
		c0,2.9,0.6,15.7-0.5,17.3c-2.1,0.2-1.6-0.8-1.6-4c0-2.3,0.5-14.2-0.6-15.8c-0.7-1-1.9-1.6-3.1-1.6c-3.3,0.1-3.5,2.9-3.5,6.1v25.6
		c0,8.1,3.9,14.1,8.2,17.6c4.7,3.8,12.5,6.2,20,4.1c6.7-1.9,11.2-6.4,13.9-11.7c3.2-6.3,2.3-18,2.3-26c0-8-6.2-5.5-7-3.6
		c-0.7,1.5-0.3,11.4-0.3,13.9c0,5.5-1.5,1-8.8,4.6c-6.4,3.2-4.7,6.1-7.6,5.7c-1.1-3.9,7.2-8.9,14.2-9.4l0.1-30.8
		c0-2.9-0.1-5.7-3-6.1c-3.5-0.4-4.2,2.1-4.2,5.1v22.6c0,2.6-2.1,3.2-2.1-0.7v-27.3c0-4-3.6-5.9-6.1-3.4c-1.8,1.8-1.1,7.3-1.1,10.4
		C346,228.9,346.6,246.8,345.6,248.3L345.6,248.3z"/>
	<g>
		<g>
			<path class="st2" d="M198.3,326.2l3.2-3.1c2.3,3.5,5.4,5.2,8.5,5.2c5.6,0,8.1-2.8,8.1-9.3v-22.2h-16.5v-4.3h21.6v26.8
				c0,7.3-3.3,13.3-13.1,13.3C205.7,332.7,201.1,330.7,198.3,326.2z"/>
			<path class="st2" d="M234.3,324.4c0-6.5,6.1-9.7,21.2-10.9c-0.2-4-2.1-7.3-7.7-7.3c-3.8,0-7.5,1.8-10.2,3.5l-2-3.4
				c3-1.9,7.9-4.2,13-4.2c8,0,11.9,4.7,11.9,12V332h-4.1l-0.4-4h-0.2c-3.2,2.5-7.4,4.7-11.5,4.7
				C238.8,332.7,234.3,329.6,234.3,324.4z M255.5,324.4v-7.6c-12.5,1-16.3,3.4-16.3,7.3c0,3.3,3,4.6,6.4,4.6
				C248.9,328.7,252.2,327.1,255.5,324.4z"/>
			<path class="st2" d="M271.1,302.8h4.1l0.4,4.9h0.2c3.1-3.2,6.4-5.6,11-5.6c6.9,0,10.1,4.1,10.1,11.8V332h-5v-17.5
				c0-5.5-1.9-8.1-6.7-8.1c-3.5,0-5.8,1.7-9.2,5.2V332h-5V302.8z"/>
			<path class="st2" d="M307.9,289.2h5v28.9h0.2l15.7-15.3h5.7l-21.6,21.3v7.9h-5V289.2z M319.1,316.5l3-3.2l13.9,18.7h-5.5
				L319.1,316.5z"/>
			<path class="st2" d="M341.7,317.3c0-9.5,7.1-15.3,14.9-15.3c8.4,0,13.3,5.5,13.3,13.7c0,1.1-0.1,2.2-0.2,3H345v-3.8h21.7
				l-1.3,1.4c0-6.9-3.4-10.3-8.8-10.3c-5.4,0-10.1,4.1-10.1,11.4c0,7.6,4.9,11.4,11.4,11.4c3.5,0,6.2-1.1,8.9-2.8l1.8,3.2
				c-2.9,1.9-6.6,3.5-11.3,3.5C348.7,332.7,341.7,327.1,341.7,317.3z"/>
			<path class="st2" d="M379.3,302.8h4.1l0.4,4.9h0.2c3.1-3.2,6.4-5.6,11-5.6c6.9,0,10.1,4.1,10.1,11.8V332h-5v-17.5
				c0-5.5-1.9-8.1-6.7-8.1c-3.5,0-5.8,1.7-9.2,5.2V332h-5V302.8z"/>
		</g>
	</g>
</g>
<g id="Capa_2" class="st3">
	<g class="st4">
		<g>
			<g class="st3">
				<path class="st5" d="M748.1,90c0.7,0-0.4,0.3-0.3,0.5c0.2,0.4,0.9,1,1.3,1.4c6.5,6.9,13.6,12.7,22,16.8
					c3.7,1.8,7.4,3.3,11.3,4.4c1,0.3,1,0.6,0.4,1.4c-4.2,5.1-8.3,10.1-12.5,15.3c-0.5,0.6-1,0.6-1.7,0.6c-6.6-0.1-13-1.1-19.3-2.6
					c-11.3-2.8-21.6-7.7-30.7-15c-4.5-3.7-8.6-7.8-11.9-12.6c-0.4-0.6-0.6-1.3-0.6-2c-0.1-5.1,0.4-10.1,0.5-15.2
					c0.2-0.4,0.3-0.9,0.1-1.3c0.1-0.7,0.1-1.5,0.1-2.2c0.2-0.3,0.2-0.5,0.1-0.8c0-0.5,0.1-0.9,0.1-1.4c0.8-6.4,1.6-12.9,2.7-19.2
					c1.4-8.1,3.2-16.2,5.4-24.2c1.3-4.7,2.4-9.5,4.1-14.1c1.8-4.9,3.2-9.8,5.2-14.6c2.8-6.7,5-13.2,7.9-19.9
					c1.8-4.1,5.3-8.4,9.1-10.7c8.8-5.6,18.3-9.7,28.2-12.8c7.8-2.4,15.3-3.5,23.6-3.7c1.6,0,2.3,1,3,2c0.5,0.6-0.4,0.7-0.7,0.8
					c-2.1,0.7-4.3,1.3-6.4,2c-13,4.2-25.8,7.7-37.3,15c-2.5,1.6-6.4,3.9-8.5,5.6c-0.7,0.5-0.9,2.1-0.1,2.9
					c54.4-25.6,109.2-27.2,164.3-0.5c1.1-1.8,0.3-5.1-0.1-5.5c-8.9-6.7-18.4-8.7-28.6-13c-6-2.6-13.2-3.7-19.5-5.6
					c-1.3-0.4-0.2-1.6,0.4-2.6c1.2-1.7,1.8-1.3,3.9-1.2c6.8,0.4,13.5,1.7,20,3.6c12.5,3.6,24.4,8.7,34.9,16.2
					c0.9,0.6,1.6,1.7,2.1,2.6c3.9,7.6,6.8,15.8,9.9,23.8c3.8,10,7.2,20.1,9.9,30.4c3.7,13.8,6.2,27.8,7.7,42c0.1,0.9,0,1.8,0.3,2.7
					c0.1,0.7,0.1,1.4,0.1,2.2c-0.1,0.5-0.1,0.9,0.1,1.4c0,1.2,0,2.4,0.2,3.6c-0.1,1-0.1,2,0.2,3c-0.1,0.3-0.1,0.7,0.1,1
					c-0.3,0.5-0.2,0.9,0,1.4c0,2.1,0,4.2,0,6.3c0,0.7-0.2,1.3-0.6,1.9c-5.7,8.1-13.1,14.3-21.6,19.3c-10.9,6.3-22.7,9.7-35.2,10.8
					c-1.8,0.2-3.5,0.3-5.3,0.3c-0.7,0-1.2-0.2-1.6-0.7c-4-5-8.1-9.9-12.2-14.8c-0.7-0.8-0.5-1.1,0.5-1.4c9.5-2.8,18.4-7,26.2-13.3
					c3.5-2.8,6.8-5.8,9.2-9.6c-0.3-0.3-0.6-0.1-0.8,0c-9.5,6.1-19.8,10.4-30.4,14.1c-10.9,3.8-22.1,6.3-33.6,7.5
					c-9.4,1-18.9,1-28.3,0.1c-12.1-1.1-24-3.6-35.5-7.4C769,101.1,758.2,96.3,748.1,90C748,90,748,90,748.1,90
					C748,90.1,748.1,90,748.1,90z M886.3,57.3c-0.2-5.9-1.9-10.9-5.5-15.2c-7.8-9.4-21.4-10.2-30.2-1.7c-7.7,7.5-9.3,20.1-3.5,29.2
					c5,8,13.9,11.9,22.4,9.8C879.5,77,886.5,67.6,886.3,57.3z M810.4,57.3c0-4.7-1.2-8.9-3.6-12.7c-6.7-10.8-20.7-13.3-30.4-5.6
					c-9.6,7.7-11.5,22.6-3.9,32.4c5.4,7,12.5,10,21.2,8C803.7,77,810.4,68,810.4,57.3z"/>
			</g>
			<g class="st3">
				<path class="st6" d="M444.6,7.1c2.5-10,5.7-19.5,12.4-27.6c11.3-13.5,25.8-20.6,43.2-20.7c45.5-0.3,91-0.3,136.5,0
					c28.1,0.2,50.3,19.8,54.8,47.5c0.1,0.7,0.6,1.3,0.9,1.9c0,26.1,0,52.1,0,78.2c-2.2,10.1-5.3,19.7-11.9,27.9
					c-11.6,14.3-26.8,21.5-45,21.5c-44.7,0.2-89.5,0.2-134.2,0c-33.1-0.1-53.4-24.7-56-47.5c-0.1-0.7-0.5-1.3-0.8-2
					C444.6,60,444.6,33.6,444.6,7.1z M568.6,126c22.4,0,44.8,0.1,67.2,0c26.9-0.2,46.7-20.3,46.8-47.2c0-21.1,0.1-42.2,0-63.3
					c-0.2-26.1-19.7-46.4-45.7-46.6c-45.5-0.3-91-0.4-136.6,0c-26.1,0.2-45.6,20.6-45.6,46.6c0,20.7,0,41.5,0,62.2
					c0,28.7,19.6,48.3,48.4,48.3C524.9,126,546.7,126,568.6,126z"/>
				<path class="st6" d="M540.7,46.8c0-7.3-0.1-14.7,0-22c0.1-7.1,2.9-9.1,9.3-6.5c18.7,7.8,37.5,15.5,56.1,23.6
					c2.1,0.9,4.9,3.6,4.9,5.5c0,1.9-2.7,4.5-4.9,5.4c-18.6,8-37.4,15.8-56.1,23.6c-6.3,2.6-9.2,0.6-9.2-6.5
					C540.6,62.2,540.7,54.5,540.7,46.8z M551,65.1c14.2-5.9,27.8-11.6,42.5-17.8c-14.8-6.1-28.3-11.8-42.5-17.7
					C551,41.7,551,52.9,551,65.1z"/>
			</g>
			<g>
				<path class="st7" d="M372.9,252.9c-25.9-11.5-40.3,11.1-40.3,11.1c-7.1,10.4-5,11.1-5,11.1c2.8-5.5,11.9-10.7,23.5-13.4
					c0.8-2.5,3.1-4.3,5.9-4.3c2.1,0,4,1.1,5.1,2.7c6.9-0.5,13.2,0.2,18,1.7l4.6-5.2C383.8,256.6,372.9,252.9,372.9,252.9z"/>
				<circle class="st7" cx="357.1" cy="263.6" r="3.8"/>
				<path class="st7" d="M363.2,262.6c0,0.3,0.1,0.6,0.1,0.9c0,3.4-2.8,6.2-6.2,6.2c-2.2,0-4.2-1.2-5.3-3c-1.9,1.3-3.5,2.9-4.6,4.9
					c0,0-13,20.2-11,41.2c0,0,7.9-8.2,15.2-2.8c0,0-6.6-30.1,26.2-46l0.6-1.7C378.2,262.3,370.9,261.4,363.2,262.6z"/>
				<path class="st7" d="M387.4,264.6h-8.2c0,0-29.4,14.8-22.1,43.1C357.1,307.7,367.2,281.1,387.4,264.6z"/>
				<path class="st7" d="M388.9,263.6c0,0,12.9-9,49.1-15.7c0,0-32.2-0.3-51.9,8.8l-5,6.2C381,262.8,386.5,262.3,388.9,263.6z"/>
				<path class="st7" d="M347.8,267.4c0,0-14,15.8-13.6,42.1c0,0-2.8-2.8-7.3-1.9c0,0,7.5-24.6-80.6-101.9c0,0,56.9,40.4,81.1,72.3
					C327.3,278.1,338.5,265.2,347.8,267.4z"/>
				<path class="st7" d="M289.3,254.3c0,0-57.6-60.8-108-72.5C181.3,181.9,191.9,213.7,289.3,254.3z"/>
				<path class="st7" d="M302.6,271.3c0,0-11.8-13.5-16.9-15.5c0,0-48.4-16.9-76.9-40.2l-10.3-1.8
					C198.4,213.9,223,257.7,302.6,271.3z"/>
				<path class="st7" d="M310.7,282.8c0,0-7.9-8.6-12.9-9.2c0,0-35.4-6-60.8-21.9l-12.1,0.9C224.9,252.6,253.5,290.4,310.7,282.8z"
					/>
				<path class="st7" d="M316.9,292c0,0-5.2-6.3-10.3-5.9c0,0-30.1,2.3-49.1-7.4c0,0-10.3,2-11.2,1.5c0,0,24.7,25.7,68.5,13.4
					C314.8,293.7,316.6,293.1,316.9,292z"/>
				<path class="st7" d="M322.2,299.6c0,0-2.9-2.9-5.3-2.6c0,0-27.2,7.2-48.3-1.2l-8.3,5.8c0,0,33.3,18.7,61.9-1.6"/>
				<path class="st7" d="M323.2,308.9c0,0-2.7-3-5.7-2.2c0,0-18.4,9-38.6,4.6l-6.6,6.1C272.3,317.4,305.3,328.6,323.2,308.9z"/>
				<path class="st7" d="M354.4,306.6c0,0,21.3,37.9-50.9,73c0,0-9.9-47.4,34-63.8c0,0,6.4-9.1,15.6-3L354.4,306.6z"/>
				<path class="st7" d="M326.8,310.3c0,0-13.6,11.2-22.2,10.3c0,0-24.1,20.4-27.1,52.7c5-0.9,13.4-3.8,23.6-12.2
					c2.4-16.8,10.3-38,33.7-46.7C334.8,314.4,331.9,310.2,326.8,310.3z"/>
				<g>
					<path class="st7" d="M300.1,376.9c-0.1-3.6,0-8.2,0.6-13.3c-3.5,2.9-14.8,11.6-23.9,13.2c-0.7,3.6-2,10.1-3.9,17.3
						C277.1,393.3,286.4,390,300.1,376.9z"/>
					<path class="st7" d="M271.9,397.9c-3.1,10.6-7.6,21.9-13.6,27.3c0,0,10.1,0.2,42.3-40.6c0,0-0.3-2.1-0.4-5.5
						C297.2,382.2,283.2,396.7,271.9,397.9z"/>
				</g>
			</g>
			<rect x="181.3" y="179.9" class="st8" width="259.3" height="258.3"/>
		</g>
		<g id="Bancos" class="st3">
			<rect x="217.6" y="253.7" class="st9" width="28.6" height="127.4"/>
			<rect x="292" y="253.7" class="st9" width="28.6" height="127.4"/>
			<rect x="367.5" y="253.7" class="st9" width="28.6" height="127.4"/>
			<path class="st9" d="M365.4,428.1H193c-4.1,0-7.5-3.4-7.5-7.7v-5.7c0-4.2,3.4-7.7,7.5-7.7h232.3c4.1,0,7.5,3.4,7.5,7.7v5.7
				c0,4.2-3.4,7.7-7.5,7.7h-42.1"/>
			<path class="st9" d="M412.2,399.4c0,4.2-3.4,7.7-7.7,7.7H209.3c-4.2,0-7.7-3.4-7.7-7.7v-10.5c0-4.2,3.4-7.7,7.7-7.7h195.2
				c4.2,0,7.7,3.4,7.7,7.7V399.4z"/>
			<line class="st10" x1="248.5" y1="215.6" x2="247.4" y2="216.2"/>
			<path class="st10" d="M248.5,215.6"/>
			<path class="st10" d="M250.6,214.8"/>
			<polyline class="st10" points="236.1,223.1 183.5,253.2 306.6,253.2 429.8,253.2 368.2,218 306.6,182.8 259.9,209.5 			"/>
			<path class="st10" d="M236.1,223.1"/>
			<path class="st10" d="M241.6,220"/>
		</g>
		<rect x="174.6" y="175.4" class="st11" width="262.8" height="262.8"/>
		<g id="nectar" class="st3">
			<path class="st6" d="M435,343c-7.4-9.7-16.9-16.6-27.8-21.7c-1.7-0.8-3.5-1.5-5.7-2.5c0.8-0.6,1.3-0.9,1.7-1.2
				c17.7-17.5,30-38.1,35-62.9c1.7-8.5,2.7-16.9,2.7-25.5c0-3.2-1.2-4.4-4.4-4.4c-6.8,0-13.6,0.5-20.3,1.5
				c-19.2,2.9-37,9.4-53.4,19.8c-1.9,1.2-2.2,0.7-2.7-1.1c-2-8.3-5-16.2-9.3-23.6c-0.4-0.8-0.7-1.6-1.2-2.4
				c-3.7-5.8-7.6-11.4-12.2-16.6c-8-9-17.2-16.1-27.5-22c-1.6-0.9-3.1-1.2-4.8-0.3c-9.1,5-17.4,11.2-24.7,18.6
				c-1.5,1.5-1.7,3.1-0.3,4.8c1.2,1.4,3.5,1.6,5.1,0.4c0.7-0.5,1.3-1.2,2-1.8c5.6-5.5,11.9-10.2,18.6-14.2c1.1-0.6,1.9-0.8,3.1-0.1
				c8.8,5.3,16.6,11.7,23.5,19.3c5.2,5.7,9.3,12.1,13.2,18.7c0.3,0.6,0.5,1.2,0.8,1.8c8.4,17,11.5,35,8.4,53.7
				c-4.9,29.2-20.9,50.8-45.7,66.1c-1.1,0.7-1.9,0.8-3.1,0.1c-12.9-7.8-23.6-17.8-32-30.4c-4-6-7.1-12.6-9.8-19.3
				c-1-0.1-1.7,0.3-2.3,0.8c0.6-0.5,1.4-0.8,2.3-0.8c-2.1-7-4.2-14-4.8-21.4c-0.5-6.7-0.7-13.5,0.2-20.1c1.2-9.1,3.5-18,7.7-26.3
				c1.1-2.3,0.4-4.1-1.5-5c-2-0.9-4.1-0.1-5,2c-1.2,2.7-2.3,5.4-3.4,8.1c-1.5,3.8-2.4,7.9-3.6,12c-2.8-1.7-5.3-3.3-7.8-4.7
				c-13.6-7.7-28.1-12.8-43.4-15.6c-8.2-1.5-16.4-2.3-24.7-2.1c-2.9,0-4.1,1.2-4.2,4.2c-0.1,5.9,0.3,11.8,1.1,17.7
				c4.1,27.7,16.5,51.2,36.3,70.7c0.5,0.5,1.4,0.9,1.4,1.9c-1,0.4-2,0.8-2.9,1.2c-14.5,6.3-26.2,15.9-34.9,29.3
				c-0.9,1.4-1.6,2.9-0.5,4.5c3.8,6,8,11.5,13.5,16c0.6,0.6,1.3,1.3,1.9,1.8c12.9,10.9,27.8,16.9,44.4,18.6
				c12.8,1.3,25.2-0.3,37.3-4.9c1.7-0.6,2.4-1.1,2.8,1.2c3.4,19.5,14.4,33.4,31.1,43.1c1.6,1,3.2,0.8,4.8-0.1
				c16.6-9.6,27.4-23.5,30.9-42.8c0.3-1.9,0.8-2,2.6-1.4c9,3.5,18.4,5.2,28.1,5.3c2.9,0.1,4.7-1.3,4.8-3.4c0-2-1.6-3.3-4.4-3.5
				c-0.6,0-1.3-0.1-1.9-0.1c-15.4-0.6-29.4-5.4-41.9-14.6c-5.1-3.8-9.7-8.2-13.8-13.8c1.4-0.1,2.5-0.2,3.6-0.3
				c5.8-0.3,11.5-1.1,17.1-2.3c22.2-4.4,42.2-13.6,59.9-27.9c1-0.8,1.7-0.9,2.8-0.5c14.1,5.2,25.9,13.6,34.7,26.1
				c0.9,1.2,0.7,1.9,0,2.9c-2,2.7-4.1,5.3-6.4,7.8c-9.7,10.1-21.5,16.8-35,20.3c-2.7,0.7-3.9,2.4-3.3,4.5c0.5,1.9,2.6,2.9,5,2.3
				c1.6-0.4,3.1-0.8,4.7-1.3c17.9-5.8,32.4-16.3,42.9-32.2c1.3-2,1.5-3.7,0-5.6C438.2,347.3,436.6,345.1,435,343z M205.9,301.2
				c-10.9-13.8-18.5-29.2-22.5-46.3c-1.6-7-2.3-14.1-2.8-21.3c-0.1-1.5,0.2-2.2,1.9-2.1c15.9,0.7,31.3,4,46,10.2
				c7.7,3.2,15,7.3,22,11.9c1.4,0.9,1.6,1.8,1.5,3.4c-1.7,15.3,0.2,30.2,5.8,44.6c0.6-0.1,1.1-0.5,1.5-0.9c-0.4,0.4-0.8,0.8-1.5,0.9
				c5.7,15.4,16.7,32.1,35.2,46c-9.3,0.6-37.6-5.9-59.2-20.6C223.3,319.7,213.9,311.3,205.9,301.2z M238.4,384
				c-11-0.3-21.4-3.4-31.2-8.2c-5.6-2.8-10.6-6.6-15.3-10.8c-3.4-3.6-6.9-7.2-9.7-11.3c-0.7-1-0.8-1.8,0-2.8
				c8.9-12.6,20.9-21.1,35.2-26.4c1.2-0.4,1.8,0.3,2.6,0.9c3.1,2.4,6.1,4.9,9.5,6.8c13.7,9.4,28.7,15.7,44.7,19.6
				c7.8,1.9,15.7,3.1,23.7,3.6c0.7,0,1.4,0.2,2.1,0.3c0.1,1-0.6,1.4-1,2C283,376.3,262.6,384.7,238.4,384z M323.6,375.2
				c2.7,2,5.4,3.9,8.4,5.4c1.6,0.8,1.9,1.8,1.7,3.5c-2,14.1-8.5,25.6-19.6,34.2c-8.3,6.5-5.5,6.3-14,0c-7.1-5.2-12.1-12.3-15.8-20.2
				c-2.1-4.5-3.4-9.5-3.8-14.6c-0.1-1-0.1-1.8,1-2.4c10.1-5.4,18.6-12.8,25.6-22.2C311.9,365.1,317.3,370.6,323.6,375.2z
				 M339.3,344.9c-5.5,1.4-11.1,2.4-16.7,3c-0.4,0-0.9,0.3-1.5-0.3c5-3.7,9.7-7.7,13.9-12.2c13.7-14.3,22.6-31.2,26.3-50.8
				c1.7-9.3,2.2-18.6,0.9-28c-0.2-1.5,0.3-2.2,1.4-2.9c16.3-10.9,34-17.8,53.3-20.6c4.7-0.7,9.5-1.2,14.2-1.5c2-0.1,2.6,0.4,2.5,2.5
				c-0.9,19.6-6.2,37.9-16.5,54.6C398.9,318.2,372.5,336.3,339.3,344.9z"/>
			<path class="st6" d="M276.1,213.5c0,2.3-2.7,5-4.9,5c-2,0-3.5-1.4-3.5-3.3c0-2.3,2.6-5.1,4.7-5.1
				C274.4,210,276.1,211.6,276.1,213.5z"/>
		</g>
		<rect x="171.1" y="170.3" class="st11" width="271.9" height="274.8"/>
		<g id="operaciones" class="st3">
			<path class="st12" d="M338.9,422.5H222.2c-4.5,0-8.1-3.6-8.1-8.1V189.4c0-4.5,3.6-8.1,8.1-8.1h18.9"/>
			<path class="st12" d="M273.7,181.3h120.2c4.5,0,8.1,3.6,8.1,8.1v225.1c0,4.5-3.6,8.1-8.1,8.1h-31.1h-3.5"/>
			<polyline class="st12" points="245.1,233.9 258.6,248.3 286.4,217.9 			"/>
			<polyline class="st12" points="245.1,282.2 258.6,296.6 286.4,266.2 			"/>
			<polyline class="st12" points="245.1,327.9 258.6,342.3 286.4,312 			"/>
			<circle class="st12" cx="266.2" cy="375.3" r="11.4"/>
			<line class="st12" x1="297.8" y1="231.8" x2="374.5" y2="231.8"/>
			<line class="st12" x1="297.8" y1="281.5" x2="374.5" y2="281.5"/>
			<line class="st12" x1="297.8" y1="328.5" x2="374.5" y2="328.5"/>
			<line class="st12" x1="297.8" y1="375.3" x2="374.5" y2="375.3"/>
			<line class="st12" x1="256.8" y1="181.3" x2="257.8" y2="181.3"/>
		</g>
		<rect x="175.4" y="175.4" class="st8" width="255.4" height="255.4"/>
		<g id="referidos_1_" class="st3">
			<line class="st13" x1="282.1" y1="184" x2="285.9" y2="184"/>
			<g id="referidos" class="st4">
				<path class="st14" d="M264.3,397.6c0.2-2.2,0.2-4.2,0.5-6.2c0.6-3.8,2.5-7.1,5.2-9.8c3.8-3.9,7.7-7.7,11.6-11.5
					c1.3-1.3,1.9-2.7,1.9-4.6c0-9.4,0-18.7,0-28.1c0-1.4-0.6-2.3-1.8-2.9c-12.8-6.1-22.5-15.4-29.1-28c-0.5-0.9-1.6-1.8-2.7-2.2
					c-4.6-1.8-9.4-3.2-13.9-5.3c-17.7-8-27.7-21.9-30.6-40.9c-0.6-3.7-1-7.5,0.1-11.2c2.3-7.8,8.7-12.3,17.5-12.3
					c7.1,0,14.1,0,21.2,0c0.5,0,1,0,1.6,0c0-6.2,0-12.2,0-18.5c-0.5,0-0.9,0-1.4,0c-3.3-0.1-6.6,0.1-9.8-0.3
					c-5.6-0.7-9.3-4.3-9.6-9.9c-0.3-5.2-0.3-10.4,0.1-15.6c0.4-5.5,5.1-9.4,10.6-9.4c9,0,16.8,0,25.8,0c2.1,0,4.2,0,6.4,0
					c2.5,0,3.9,1.3,3.9,3.5c0,2.2-1.4,3.5-3.9,3.5c-10.6,0-20.1,0-30.7,0c-4.1,0-5.5,1.4-5.5,5.5c0,3.4,0,6.7,0,10.1
					c0,4.2,1.5,5.7,5.7,5.7c10.4,0,20.9-0.1,31.3-0.1c36.5,0,73.1,0,109.6,0c1.1,0,2.3-0.3,3.3-0.7c1.4-0.6,1.9-2,1.9-3.4
					c0-4.3,0.1-8.7-0.1-13c-0.1-2.6-1.7-3.9-4.2-4c-0.5,0-0.9,0-1.4,0c-26.2,0-49.5,0-75.7,0c-0.6,0-1.2,0-1.8,0
					c-2-0.2-3.2-1.6-3.1-3.5c0-1.9,1.3-3.2,3.2-3.4c0.5-0.1,1,0,1.5,0c26.5,0,50.2,0,76.7,0c7.4,0,12,4.6,12,12
					c0,4.5,0.2,9-0.2,13.4c-0.5,5.8-5.2,9.7-11,9.8c-3.2,0-6.4,0-9.8,0c0,6.2,0,12.2,0,18.5c0.4,0,0.9,0,1.4,0c7.5,0,15,0,22.6,0
					c7.4,0,14.1,4.9,16,11.8c1.1,4,1,8.1,0.4,12.1c-1.6,10.6-5.6,20.2-13,28.2c-6.4,7-14.3,11.6-23.3,14.7c-2.6,0.9-5.2,1.8-7.8,2.7
					c-1.7,0.6-2.9,1.7-3.7,3.3c-6.3,12-15.7,21-27.9,26.8c-1.9,0.9-2.6,2.2-2.6,4.2c0.1,7.7,0.1,15.3,0.1,23c0,1.2-0.1,2.3-0.1,3.5
					c0,2.2,0.7,4,2.3,5.6c3.6,3.5,7,7.1,10.6,10.5c4.3,4.1,6.4,9.1,6.3,15.1c0,0.5,0,0.9,0,1.5c2.5,0.1,4.9,0.2,7.3,0.4
					c4.1,0.4,6.8,3.3,6.9,7.4c0,5.9,0,11.8,0,17.7c0,4.5-3.2,7.6-7.9,7.6c-5.2,0-10.3,0-15.5,0c-0.7,0-1.5,0.1-2.2,0.1
					c-2.3,0.1-4-1.5-4-3.7c0.1-2.1,1.8-3.5,4-3.5c5.9,0.1,11.9,0.1,17.9,0.1c0.2,0,0.3-0.1,0.6-0.1c0-6.2,0-12.4,0-18.6
					c-33.5,0-66.9,0-100.5,0c0,6.2,0,12.4,0,18.7c0.5,0,1,0,1.5,0c22.6,0,39.9,0,62.5,0c0.4,0,0.7,0,1.1,0c2.4-0.1,3.9,1.2,4,3.4
					c0.1,2.2-1.4,3.6-3.8,3.6c-18.2,0-31.2,0-49.3,0c-4.8,0-9.6,0.1-14.4,0.2c-5.7,0.1-9.3-3.8-9-9.5c0.2-5,0-10,0.1-14.9
					c0-1.2,0.1-2.4,0.5-3.5c1-3.3,3.9-5.1,7.8-5.2C260.5,397.6,262.4,397.6,264.3,397.6z M253,216.1c0,0.6,0,1.1,0,1.6
					c0,6.5,0,13.1,0,19.7c0,0.7-0.1,1.5-0.2,2.2c-2,7.6-2.8,15.3-2.9,23.1c-0.1,8.1,0.9,16.1,3,23.9c3.1,11.8,7.9,22.6,16.9,31.2
					c12.8,12,27.9,17.2,45.3,14.8c18.1-2.4,31.7-11.9,40.6-27.8c10.4-18.7,12.7-38.6,8.6-59.4c-0.5-2.6-1.5-5.2-1.7-7.8
					c-0.3-4.7-0.1-9.5-0.1-14.2c0-2.4,0-4.8,0-7.2C326,216.1,289.6,216.1,253,216.1z M324.9,338.4c-11.5,2-22.8,2-34.2,0
					c0,0.9,0,1.5,0,2c0,8.3,0,16.5,0,24.8c0,3.9-1.4,7.2-4.2,9.9c-4,3.9-7.9,7.8-11.8,11.7c-2.9,3-3.6,6.6-3,10.6c24,0,48,0,72.1,0
					c0.5-4.1-0.2-7.8-3.2-10.8c-4.1-4.2-8.2-8.3-12.4-12.5c-2.3-2.3-3.4-5-3.4-8.2c0-6.7,0-13.4,0-20.1
					C324.9,343.6,324.9,341.2,324.9,338.4z M245,241.7c-0.4-0.1-0.5-0.1-0.6-0.1c-7.4,0-14.9-0.1-22.3,0c-5.2,0.1-8.9,2.9-9.7,7.7
					c-0.5,2.9-0.4,6.1,0.1,9.1c3.1,17.1,12.7,28.9,28.8,35.4c2.2,0.9,4.5,1.5,7,2.4C242.3,278,241.4,260,245,241.7z M367.6,295.7
					c0.5-0.1,0.7,0,0.9-0.1c17.5-5.2,29.4-15.9,33.8-34.1c0.9-3.8,1.5-7.7,1-11.7c-0.6-5.1-4.9-8.4-10.7-8.5c-6.5,0-13,0-19.5,0
					c-0.8,0-1.6,0.2-2.5,0.3C374.9,260.1,374,278,367.6,295.7z"/>
				<path class="st14" d="M291.2,264.2c1.9,0,3.8,0,5.7,0c2,0,3-0.7,3.7-2.6c1.3-3.8,2.5-7.7,3.8-11.5c0.5-1.4,1.2-2.6,2.9-2.8
					c1.9-0.3,3.2,0.5,3.9,2.5c1.2,3.6,2.4,7.2,3.5,10.8c1,3.2,1.8,3.7,5.2,3.7c3.5-0.1,7,0,10.5,0c0.6,0,1.3,0.1,1.9,0.3
					c2.6,0.7,3.5,3.5,1.7,5.5c-0.4,0.4-0.9,0.8-1.3,1.2c-3,2.2-6,4.4-9.1,6.6c-2.1,1.5-2.4,2.6-1.6,5c1.2,3.5,2.3,7,3.5,10.5
					c0.1,0.4,0.3,0.8,0.3,1.2c0.3,1.6,0.1,2.9-1.4,3.9c-1.4,1-2.8,0.8-4.1-0.1c-3-2.2-6.1-4.4-9.1-6.6c-2.9-2.2-3.7-2.2-6.6,0
					c-3,2.2-6,4.4-9.1,6.6c-2.4,1.7-5,0.7-5.6-2.1c-0.1-0.5,0-1.1,0.1-1.6c1.3-4,2.6-8.1,3.9-12.1c0.6-1.9,0.3-3.1-1.4-4.3
					c-3.2-2.3-6.5-4.6-9.6-7c-0.8-0.6-1.6-1.5-1.9-2.4c-0.6-1.8,0.6-4,2.6-4.1c2.6-0.2,5.1-0.1,7.7-0.1
					C291.2,264.3,291.2,264.2,291.2,264.2z M319.4,291.3c-0.2-0.6-0.2-1-0.3-1.3c-0.9-2.7-1.8-5.4-2.7-8.1c-1.2-3.7-1-4.5,2.1-6.7
					c2.2-1.6,4.4-3.2,6.7-4.9c-0.3-0.1-0.5-0.3-0.6-0.3c-2.7-0.3-5.4-0.7-8.1-0.8c-3.8-0.1-4.2-0.3-5.4-3.8
					c-0.2-0.6-0.4-1.2-0.6-1.8c-0.8-2.5-1.7-5-2.6-7.8c-0.2,0.6-0.3,0.9-0.5,1.2c-1,3-2,5.9-3,8.9c-1,2.8-1.6,3.3-4.6,3.3
					c-1.8,0-3.5,0.1-5.3,0c-1.1-0.1-1.2,0.6-1.4,1.3c-0.2,0.7-0.7,1.4,0.3,2c1.7,1.1,3.3,2.4,4.9,3.6c1.4,1,2,2.4,1.4,4.1
					c-0.3,0.8-0.5,1.6-0.7,2.4c-0.9,2.8-1.7,5.6-2.7,8.7c2.9-2.1,5.5-4,8.1-5.9c3.1-2.2,3.8-2.2,6.8,0
					C313.8,287.3,316.5,289.2,319.4,291.3z"/>
			</g>
		</g>
		<rect x="181.4" y="178.9" class="st8" width="254.8" height="254.8"/>
	</g>
</g>
<g id="Capa_1" class="st3">
	<g class="st4">
		<g>
			<path class="st15" d="M376.1,347.6H221.3c-8.1,0-14.7-6.6-14.7-14.7v-48.8h169.5L376.1,347.6L376.1,347.6z"/>
			<path class="st15" d="M396,285.7l46.8,27.9c3.1,1.9,3.2,6.3,0.1,8.3L363,371.6c-2.4,1.5-5.6-0.2-5.6-3.1v-73.8
				c0-5.9,4.7-10.6,10.6-10.6h22.6C392.5,284.2,394.4,284.7,396,285.7z"/>
		</g>
		<g>
			<path class="st16" d="M224.4,216.6h154.8c8.1,0,14.7,6.6,14.7,14.7v48.8H224.4V216.6z"/>
			<path class="st16" d="M204.5,278.6l-46.8-27.9c-3.1-1.9-3.2-6.3-0.1-8.3l79.9-49.8c2.4-1.5,5.6,0.2,5.6,3.1v73.8
				c0,5.9-4.7,10.6-10.6,10.6h-22.6C208,280.1,206.1,279.6,204.5,278.6z"/>
		</g>
	</g>
</g>
</svg>
