<?xml version="1.0" encoding="utf-8"?>
<!-- Generator: Adobe Illustrator 23.0.0, SVG Export Plug-In . SVG Version: 6.00 Build 0)  -->
<svg version="1.1" xmlns="http://www.w3.org/2000/svg" xmlns:xlink="http://www.w3.org/1999/xlink" x="0px" y="0px"
	 viewBox="0 0 600 383" style="enable-background:new 0 0 600 383;" xml:space="preserve">
<style type="text/css">
	.st0{fill:#FFFFFF;}
	.st1{fill:#FC3947;}
	.st2{display:none;}
	.st3{display:inline;}
	.st4{fill-rule:evenodd;clip-rule:evenodd;fill:#29ABE2;}
	.st5{fill-rule:evenodd;clip-rule:evenodd;fill:#0071BC;}
	.st6{fill-rule:evenodd;clip-rule:evenodd;}
</style>
<g id="fondo">
	<circle class="st0" cx="297.2" cy="192.1" r="179"/>
</g>
<g id="janken_1_">
	<g id="tijera">
		<path class="st1" d="M237,158.5c-2.7,1.6-2.6,3.9-8.6,1.5l0.1,5.7c0.3,12.2,10.4,21.8,22.5,21.5c12.4-0.4,21.3-10.6,21-23.2
			s0.2-12.8-11.1-12.6c-3,0.1-5.3-0.1-6,2.6c-1.1,4.8,4.3,4.3,6.8,4.2c3.3-0.1,2.7,0.3,2.8,3.5c0.1,4.4-7.7-1.1-14.2,8.6
			c-0.3,0.4-0.3,0.7-0.8,0.8c-3.4,1.1-0.3-6,7.8-8.6c1.4-0.5,4.1-0.7,5.1-1.1v-1.2c-1.9-0.1-10.2,1.1-9.5-6.1c0.6-6,7.4-4.9,10.9-5
			c1.3-3.8,2.6-10.1,3.5-14.3c0.9-3.8,4.4-12.4-1.8-12.3c-2.9,0.1-3.4,2.3-4,4.8c-0.5,2.5-1.2,4.8-1.8,7.3c-0.6,2.4-1.1,4.6-1.7,7.1
			s-1,6-2.3,6.9c-1.8-0.6-1.3-2.2-1.3-4.4l-0.4-17.1c-0.1-3.6,0.3-8.1-3.9-8s-3.5,4.6-3.5,8.1c0.2,7.7,0.4,15.3,0.5,23
			c0.1,4.2,0.5,6.9-2.1,9.1C242,161.9,238.7,160.5,237,158.5L237,158.5z"/>
		<path class="st1" d="M245.1,154l-0.3-12.2c-0.1-4-3.7-5.9-6.2-3.5c-2.1,2-1.2,6.6-1.1,9.9c0.1,3.5-0.5,8,1.8,9.7
			C242.3,160.1,245.2,157.6,245.1,154L245.1,154z"/>
		<path class="st1" d="M230.4,140.5c-3.4,1.4-2.4,4.9-2.3,10.6c0,1.9-0.2,4.6,0.8,6.1c0.7,1.1,2.4,2.2,4.5,1.4
			c3.3-1.4,2.2-6.5,2.1-10.6c0-1.7,0.1-5-0.6-6.2C234.2,140.7,232.2,139.8,230.4,140.5z"/>
	</g>
	<path id="piedra_1_" class="st1" d="M307,143.4l7.5-0.1c0-2.3,0.4-6.7-0.7-8.3c-0.9-1.3-2.7-2-4.3-1.3
		C306.1,134.9,307,139.6,307,143.4z M303.5,151.7c-0.1-2.5-1.1-3.5,0.5-5.9c1.4-2.1,0.9-2,0.9-6.6c0-2.1,0.3-5.3-0.7-6.8
		c-0.9-1.3-3.3-2.2-5.1-0.9c-2.7,2-1.7,8.9-1.7,12.8C297.4,149.6,297.6,153.8,303.5,151.7L303.5,151.7z M290.3,131.2
		c-3.5,1.7-2.5,5.5-2.5,12.2c0,1.7-0.3,5.3,0.4,6.8c0.8,1.8,3,2.7,4.8,1.9c3.4-1.4,2.3-8.1,2.3-12.2c0-1.8,0.3-5.3-0.4-6.8
		S292.4,130.2,290.3,131.2L290.3,131.2z M280.7,133.7c-1.7,0.8-2.4,1.4-2.4,3.9c0,2.2-0.4,11.4,0.5,12.9c0.9,1.6,2.8,2.3,4.6,1.7
		c3.5-1.2,2.5-6.9,2.5-10.7c0-2,0.4-4.7-0.6-6.2C284.4,133.9,282.7,132.9,280.7,133.7L280.7,133.7z M314.3,157.5
		c-1.1,0.7-3.6,0.6-5.1,0.9c-4.4,1.1-6.6,2.9-8.9,6.1c-1.3,1.8-2.9,0.6-1.7-1.3c4.4-7.1,12.7-6.7,14-7.6v-1c-1.2-0.4-2.7-0.1-4-0.2
		c-2.4-0.1-2.2-0.7-3.8-1.2c-3.4,1.9-6.3,1.5-8.2-1.2c-1.4,0.8-2.2,2.3-4.8,2.4c-2.7,0.1-3.7-1.5-5.2-2.3c-0.7,0.9-1.7,2-3.4,2.2
		c-2.2,0.4-3.3-0.4-4.8-1c-0.4,6.4-0.1,10.8,2.3,16c5.3,11.1,20,15.6,31,8.9c2.3-1.4,3.3-2.5,5-4.3c2.5-2.6,5.2-7.7,5.6-12.6
		c0.3-2.9,0.1-6.4,0.1-9.3c0-3.2-0.8-5.1-3.2-6.2c-1.7-0.8-6.2-0.4-8.4-0.5c-2.9,0-5.6,0.3-5.7,3.5c0,3.2,2.6,3.6,5.7,3.6
		c1.4,0,3.3-0.4,3.7,0.7c0.2,0.5,0.2,1.6,0.2,2.2C314.7,155.9,314.7,156.9,314.3,157.5L314.3,157.5z"/>
	<path id="papel_1_" class="st1" d="M345.6,153.3c-2,0.2-1.7-0.6-1.7-2.6v-13c0-4.7,1.6-14.3-4-13.8c-4.4,0.4-3.2,7.6-3.2,14.1
		c0,2.9,0.6,15.7-0.5,17.3c-2.1,0.2-1.6-0.8-1.6-4c0-2.3,0.5-14.2-0.6-15.8c-0.7-1-1.9-1.6-3.1-1.6c-3.3,0.1-3.5,2.9-3.5,6.1v25.6
		c0,8.1,3.9,14.1,8.2,17.6c4.7,3.8,12.5,6.2,20,4.1c6.7-1.9,11.2-6.4,13.9-11.7c3.2-6.3,2.3-18,2.3-26s-6.2-5.5-7-3.6
		c-0.7,1.5-0.3,11.4-0.3,13.9c0,5.5-1.5,1-8.8,4.6c-6.4,3.2-4.7,6.1-7.6,5.7c-1.1-3.9,7.2-8.9,14.2-9.4l0.1-30.8
		c0-2.9-0.1-5.7-3-6.1c-3.5-0.4-4.2,2.1-4.2,5.1v22.6c0,2.6-2.1,3.2-2.1-0.7v-27.3c0-4-3.6-5.9-6.1-3.4c-1.8,1.8-1.1,7.3-1.1,10.4
		C346,133.9,346.6,151.8,345.6,153.3L345.6,153.3z"/>
	<g id="janken">
		<g>
			<path class="st1" d="M198.3,231.2l3.2-3.1c2.3,3.5,5.4,5.2,8.5,5.2c5.6,0,8.1-2.8,8.1-9.3v-22.2h-16.5v-4.3h21.6v26.8
				c0,7.3-3.3,13.3-13.1,13.3C205.7,237.7,201.1,235.7,198.3,231.2z"/>
			<path class="st1" d="M234.3,229.4c0-6.5,6.1-9.7,21.2-10.9c-0.2-4-2.1-7.3-7.7-7.3c-3.8,0-7.5,1.8-10.2,3.5l-2-3.4
				c3-1.9,7.9-4.2,13-4.2c8,0,11.9,4.7,11.9,12V237h-4.1l-0.4-4h-0.2c-3.2,2.5-7.4,4.7-11.5,4.7
				C238.8,237.7,234.3,234.6,234.3,229.4z M255.5,229.4v-7.6c-12.5,1-16.3,3.4-16.3,7.3c0,3.3,3,4.6,6.4,4.6
				C248.9,233.7,252.2,232.1,255.5,229.4z"/>
			<path class="st1" d="M271.1,207.8h4.1l0.4,4.9h0.2c3.1-3.2,6.4-5.6,11-5.6c6.9,0,10.1,4.1,10.1,11.8V237h-5v-17.5
				c0-5.5-1.9-8.1-6.7-8.1c-3.5,0-5.8,1.7-9.2,5.2V237h-5v-29.2H271.1z"/>
			<path class="st1" d="M307.9,194.2h5v28.9h0.2l15.7-15.3h5.7l-21.6,21.3v7.9h-5L307.9,194.2L307.9,194.2z M319.1,221.5l3-3.2
				L336,237h-5.5L319.1,221.5z"/>
			<path class="st1" d="M341.7,222.3c0-9.5,7.1-15.3,14.9-15.3c8.4,0,13.3,5.5,13.3,13.7c0,1.1-0.1,2.2-0.2,3H345v-3.8h21.7
				l-1.3,1.4c0-6.9-3.4-10.3-8.8-10.3s-10.1,4.1-10.1,11.4c0,7.6,4.9,11.4,11.4,11.4c3.5,0,6.2-1.1,8.9-2.8l1.8,3.2
				c-2.9,1.9-6.6,3.5-11.3,3.5C348.7,237.7,341.7,232.1,341.7,222.3z"/>
			<path class="st1" d="M379.3,207.8h4.1l0.4,4.9h0.2c3.1-3.2,6.4-5.6,11-5.6c6.9,0,10.1,4.1,10.1,11.8V237h-5v-17.5
				c0-5.5-1.9-8.1-6.7-8.1c-3.5,0-5.8,1.7-9.2,5.2V237h-5v-29.2H379.3z"/>
		</g>
	</g>
</g>
<g id="rdtec" class="st2">
	<g class="st3">
		
			<image style="overflow:visible;enable-background:new    ;" width="954" height="684" xlink:href="BCDE2A97.png"  transform="matrix(0.2285 0 0 0.2285 189.4926 105.2075)">
		</image>
	</g>
</g>
<g id="tasa" class="st2">
	<g class="st3">
		<g>
			<g>
				<path class="st4" d="M354.5,230.9H230.4c-6.5,0-11.8-5.3-11.8-11.8v-39.1h135.9V230.9L354.5,230.9z"/>
				<path class="st4" d="M370.5,181.2l37.5,22.4c2.5,1.5,2.6,5.1,0.1,6.7L344,250.1c-1.9,1.2-4.5-0.2-4.5-2.5v-59.2
					c0-4.7,3.8-8.5,8.5-8.5h18.1C367.7,180,369.2,180.4,370.5,181.2z"/>
			</g>
			<g>
				<path class="st5" d="M232.9,125.8H357c6.5,0,11.8,5.3,11.8,11.8v39.1H232.9V125.8z"/>
				<path class="st5" d="M217,175.5l-37.5-22.4c-2.5-1.5-2.6-5.1-0.1-6.7l64.1-39.9c1.9-1.2,4.5,0.2,4.5,2.5v59.2
					c0,4.7-3.8,8.5-8.5,8.5h-18.1C219.8,176.7,218.3,176.3,217,175.5z"/>
			</g>
		</g>
	</g>
</g>
<g id="colibri" class="st2">
	<g class="st3">
		<g>
			<g>
				<g>
					<path class="st6" d="M349.6,136.9c-17.5-7.8-27.2,7.5-27.2,7.5c-4.8,7-3.4,7.5-3.4,7.5c1.9-3.7,8-7.2,15.9-9.1
						c0.5-1.7,2.1-2.9,4-2.9c1.4,0,2.7,0.7,3.4,1.8c4.7-0.3,8.9,0.1,12.2,1.1l3.1-3.5C357,139.4,349.6,136.9,349.6,136.9z"/>
					<circle class="st6" cx="339" cy="144.1" r="2.6"/>
					<path class="st6" d="M343.1,143.5c0,0.2,0.1,0.4,0.1,0.6c0,2.3-1.9,4.2-4.2,4.2c-1.5,0-2.8-0.8-3.6-2c-1.3,0.9-2.4,2-3.1,3.3
						c0,0-8.8,13.7-7.4,27.9c0,0,5.3-5.5,10.3-1.9c0,0-4.5-20.3,17.7-31.1l0.4-1.1C353.2,143.3,348.3,142.7,343.1,143.5z"/>
					<path class="st6" d="M359.4,144.8h-5.5c0,0-19.9,10-14.9,29.1C339,174,345.8,156,359.4,144.8z"/>
					<path class="st6" d="M360.5,144.1c0,0,8.7-6.1,33.2-10.6c0,0-21.8-0.2-35.1,5.9l-3.4,4.2C355.1,143.6,358.8,143.3,360.5,144.1z
						"/>
					<path class="st6" d="M332.7,146.7c0,0-9.5,10.7-9.2,28.5c0,0-1.9-1.9-4.9-1.3c0,0,5.1-16.6-54.5-68.9c0,0,38.5,27.3,54.8,48.9
						C318.8,154,326.4,145.2,332.7,146.7z"/>
					<path class="st6" d="M293.1,137.9c0,0-38.9-41.1-73-49C220.1,88.9,227.3,110.4,293.1,137.9z"/>
					<path class="st6" d="M302.1,149.4c0,0-8-9.1-11.4-10.5c0,0-32.7-11.4-52-27.2l-7-1.2C231.7,110.6,248.3,140.2,302.1,149.4z"/>
					<path class="st6" d="M307.6,157.1c0,0-5.3-5.8-8.7-6.2c0,0-23.9-4.1-41.1-14.8l-8.2,0.6C249.6,136.7,268.9,162.3,307.6,157.1z"
						/>
					<path class="st6" d="M311.8,163.3c0,0-3.5-4.3-7-4c0,0-20.3,1.6-33.2-5c0,0-7,1.4-7.6,1c0,0,16.7,17.4,46.3,9.1
						C310.4,164.5,311.6,164.1,311.8,163.3z"/>
					<path class="st6" d="M315.4,168.5c0,0-2-2-3.6-1.8c0,0-18.4,4.9-32.7-0.8l-5.6,3.9c0,0,22.5,12.6,41.8-1.1"/>
					<path class="st6" d="M316,174.8c0,0-1.8-2-3.9-1.5c0,0-12.4,6.1-26.1,3.1l-4.5,4.1C281.6,180.5,303.9,188.1,316,174.8z"/>
					<path class="st6" d="M337.1,173.2c0,0,14.4,25.6-34.4,49.4c0,0-6.7-32,23-43.1c0,0,4.3-6.2,10.5-2L337.1,173.2z"/>
					<path class="st6" d="M318.5,175.7c0,0-9.2,7.6-15,7c0,0-16.3,13.8-18.3,35.6c3.4-0.6,9.1-2.6,16-8.2c1.6-11.4,7-25.7,22.8-31.6
						C323.9,178.5,321.9,175.7,318.5,175.7z"/>
					<g>
						<path class="st6" d="M300.4,220.7c-0.1-2.4,0-5.5,0.4-9c-2.4,2-10,7.8-16.2,8.9c-0.5,2.4-1.4,6.8-2.6,11.7
							C284.9,231.8,291.2,229.6,300.4,220.7z"/>
						<path class="st6" d="M281.4,234.9c-2.1,7.2-5.1,14.8-9.2,18.5c0,0,6.8,0.1,28.6-27.4c0,0-0.2-1.4-0.3-3.7
							C298.5,224.3,289,234.1,281.4,234.9z"/>
					</g>
				</g>
			</g>
		</g>
	</g>
</g>
</svg>
