<svg id="Capa_1" data-name="Capa 1" xmlns="http://www.w3.org/2000/svg" xmlns:xlink="http://www.w3.org/1999/xlink" viewBox="0 0 850.84 349.2"><defs><style>.cls-1{fill:url(#Degradado_sin_nombre);}.cls-2{fill:#91d8f7;}.cls-3{fill:#2d3060;}.cls-4{fill:#fefefe;}.cls-5{mask:url(#mask);}.cls-6{fill:#0f7bbf;}.cls-7{fill:#0098da;}.cls-8{fill:#ec268f;}.cls-9{fill:#3e4095;}</style><linearGradient id="Degradado_sin_nombre" x1="31538.36" y1="-2638.28" x2="31791.78" y2="-18326.79" gradientTransform="matrix(0.03, 0, 0, -0.03, -447.93, -182.25)" gradientUnits="userSpaceOnUse"><stop offset="0" stop-color="#fff"/><stop offset="1" stop-color="#fff" stop-opacity="0"/></linearGradient><mask id="mask" x="7" y="7" width="836.85" height="334.61" maskUnits="userSpaceOnUse"><g transform="translate(-25.5 -18.56)"><g id="id0"><rect class="cls-1" x="32.5" y="25.55" width="836.85" height="334.61"/></g></g></mask></defs><title>janken</title><g id="Capa_1-2" data-name="Capa_1"><path class="cls-2" d="M323.86,295.55C557.77,174.22,652.84-.51,776.76,143.7l77.43,37S743.86-67.66,515.34,115.91s-297.68,378.26-399,144.83c0,0-11.66-136.94,44.46-176.63,125.1-88.44-128.37,362.58,163,211.44Z" transform="translate(-25.5 -18.56)"/><path class="cls-3" d="M730.43,178.12v28.09c0,.1,0,.21,0,.33a28.2,28.2,0,0,0,1.11-7.7c.14-5.78.64-11.74,4.64-16.33a15.67,15.67,0,0,1,6.41-4.39Z" transform="translate(-25.5 -18.56)"/><path class="cls-3" d="M341.15,86.84a30.59,30.59,0,0,1,3.3-1,25.11,25.11,0,0,1,2-4.3,29.46,29.46,0,0,1,9.1-9.84l-2.16,0c-3.44.06-8.25,0-12.27.31,0,1.48.07,3,.07,4.25V86.84Z" transform="translate(-25.5 -18.56)"/><path class="cls-3" d="M341,249.25c-.12,5.55-.27,13.58.18,17.74a97.46,97.46,0,0,0,10.63.39q4.84,0,9.69-.06A75.05,75.05,0,0,1,341,249.25Z" transform="translate(-25.5 -18.56)"/><path class="cls-3" d="M394.06,71.65l-8.28-.07a30.6,30.6,0,0,1,2.76,2,34.3,34.3,0,0,1,4.87-1.06l.47-.07.18-.83Z" transform="translate(-25.5 -18.56)"/><path class="cls-3" d="M505.77,309.68q2.64.69,5.27,1.45A98.77,98.77,0,0,0,522.12,314l3-10.67A70.65,70.65,0,0,1,505.77,309.68Z" transform="translate(-25.5 -18.56)"/><path class="cls-3" d="M569.18,135.29l1-4,0-.15c.35-1.21,1.35-3.69,1.87-5.59l-.4-.08-.42-.08-16.59-4.27c0,2.43,0,4.85.07,7.26a29.22,29.22,0,0,1,10.83,4.28A31.32,31.32,0,0,1,569.18,135.29Z" transform="translate(-25.5 -18.56)"/><path class="cls-4" d="M770.07,113.85h33.78a17.73,17.73,0,0,1,11.07,3.36,44.47,44.47,0,0,1,20.3-4.84c10.69,0,20.44,3.71,27.33,12,6.23,7.55,8.94,16.68,8.94,26.4v95.39c3.62,4.29,4.85,10,4.85,15.82,0,5.23-.49,10.36-4,14.6s-8.64,6-14,6H824.28l-3.93-3.36-.42-.37a20.73,20.73,0,0,1-12.22,3.73H771.28c-5.16,0-10-1.31-13.65-5.22l-.18-.19-.17-.2c-3.23-3.73-4.12-8.27-4.12-13v-3.8a18.88,18.88,0,0,1,5.7-14v-6.9c-9.17,8.53-20.69,12.7-33.67,12.7a51.47,51.47,0,0,1-26.28-7,19.24,19.24,0,0,1,3.94,11.87v5.49c0,10.48-7.88,17.8-18.22,17.8H657a19.5,19.5,0,0,1-12.81-4.51,18,18,0,0,1-12.24,4.51h-37a17.77,17.77,0,0,1-8.7-2.16l-9.36,35.21c-4.09,15.35-6.43,29.26-18.89,40.67-13.2,12.08-33.44,16.25-50.5,11.18l-30.19-8.15c-5.06-1.37-10.05-3-15.12-4.28a44.44,44.44,0,0,0-6.3-1.52l-1-.11L431,344.81c-2.62-.67-4.53-1.71-6.92-2.5-3-.73-5.51-.76-8.82-1.89-4.73-1.61-9.76-2.6-14.61-3.81l-.51-.13L351,320.21l1.68-.74c-11.8.38-22.5,1-34.16-4.63l-1.06-.51L302.74,303.9l-.65-.6a32.89,32.89,0,0,1-6.18-8.17c-.63-1.11-1.32-2.31-1.88-3.45l-.07-.15-.64-1.37,0-.07c-.12-.26-.22-.51-.33-.77-.85-1.95-1.62-3.84-2.28-5.75-.62.05-1.24.07-1.87.07H254.54l-3.93-3.36-.49-.43a20.77,20.77,0,0,1-12.31,3.79H201.09c-5.16,0-10-1.31-13.67-5.23l-.18-.19-.17-.19c-3.24-3.75-4.13-8.29-4.13-13.07v-3.83a21.52,21.52,0,0,1,.45-4.42h-1.34a41.42,41.42,0,0,1-20.2-4.72,27.7,27.7,0,0,1-4.2-2.86,39.3,39.3,0,0,1-6.17,3.65,41,41,0,0,1-17.42,3.93,38.14,38.14,0,0,1-24-7.93,75.24,75.24,0,0,1-12.42,24.89C85.21,290,66.67,296.21,46.66,296.21c-5.17,0-10.34-.39-14.61-3.67-4.61-3.53-6.55-8.84-6.55-14.48v-3.94a19.75,19.75,0,0,1,2.3-10.06l.31-.53.34-.5c3.16-4.56,8-6.44,13.28-6.9a4.47,4.47,0,0,0,1.89-.5c2.54-1.78,3-11.17,3-13.79V113.89a18.67,18.67,0,0,1-10.21-17c0-4.47-.09-9.58,1.94-13.67,3-6.09,9.1-8.7,15.57-8.7h49.44c4.94,0,9.67,1.13,13.38,4.62a17,17,0,0,1,5.09,10.83c9.17-4.35,19.36-6,29.66-6A81.3,81.3,0,0,1,177.86,88a45.29,45.29,0,0,1,22.23,16.14,44.62,44.62,0,0,1,5.46,9.67h28.36a17.72,17.72,0,0,1,11.15,3.41,44.64,44.64,0,0,1,20.46-4.9c8.41,0,16.24,2.28,22.56,7.29-.19-19.42-2.91-53.92,4.22-69.78l.19-.42L295.35,44l.11-.19.17-.29a20.43,20.43,0,0,1,1.43-2.3l.18-.27,1-1.32.08-.11c9.19-11.49,19.72-18,34.45-20.11,10.4-1.49,21.14-.52,31.61-.53,19.65,0,39.31-.27,59-.32,13.51,0,27,0,40.54.15,6.06.08,19.31-.16,24.91,1.58,14.55,4.51,27.07,14.61,33.4,28.6a52.11,52.11,0,0,1,3.5,10.66l1.22.1c6.89.59,11.88,2.62,18.33,4.32,15,4,51,11.25,61.61,20.74.42.37.82.74,1.22,1.12h19.23c5.46,0,10.58,1.58,14.14,6l.18.23.18.24c2.63,3.6,3.3,7.72,3.3,12v7.17a23,23,0,0,1,2.88-.17h27.62a64.8,64.8,0,0,1,3.81-6.36c10.56-15.6,25.61-24.76,44.62-24.76,16.84,0,30.37,8,39.76,21.83a64,64,0,0,1,6.25,11.76Z" transform="translate(-25.5 -18.56)"/><g class="cls-5"><path class="cls-6" d="M765.53,121.93a10.27,10.27,0,0,1,4.73-1.08h33.59c3,0,6,.67,8.07,3.14a8.82,8.82,0,0,1,1.36,2.32,38.18,38.18,0,0,1,21.94-6.94c8.58,0,16.38,2.8,21.93,9.51,5.19,6.28,7.33,13.85,7.33,21.94v98.37c3.95,3,4.86,8.13,4.86,12.84,0,3.38-.13,7.4-2.39,10.13s-5.38,3.45-8.62,3.45H826.87l-2-1.68a24.72,24.72,0,0,1-5.39-6.43c-1.13,5.38-6.14,8.11-11.8,8.11H771.28c-3.15,0-6.28-.58-8.53-3l-.09-.09-.09-.1c-2-2.36-2.41-5.47-2.41-8.46v-3.8c0-4,1.48-7.68,4.83-10,.21-.15.5-.36.73-.56a31.18,31.18,0,0,0,.14-3.78V217.24a52.47,52.47,0,0,1-7.93,12.83c-8.42,10.12-19.64,14.9-32.74,14.9-16.15,0-29-7.79-38.68-20.42a54.72,54.72,0,0,1-4.3-6.48l6.87,26.54a3,3,0,0,0,1.39,2,12,12,0,0,1,5.38,10.27v5.49c0,6.61-4.75,10.8-11.22,10.8H657c-7.53,0-12.07-5.33-13.63-12.3l-.54-2.46v4c0,6.43-4.47,10.8-10.88,10.8h-37c-6.8,0-10.7-5.16-10.7-11.65v-3.22l-14.13,53.12c-3.65,13.71-5.76,27.16-16.85,37.3-11.4,10.44-29.13,14-43.86,9.61l-30.27-8.17c-5.08-1.38-10.1-3-15.19-4.3a48.11,48.11,0,0,0-7.28-1.69l-.48-.06L432.77,338a27.84,27.84,0,0,1-3-1,38.88,38.88,0,0,0-3.88-1.52c-2.92-.71-5.33-.71-8.38-1.75-4.94-1.68-10.12-2.71-15.17-4l-.26-.07-31.62-10.46,15.71-6.91q-12.94-.06-25.9-.07c-13.4,0-26.19,2.28-38.75-3.77l-.53-.26-13.86-9.83-.33-.31a26.1,26.1,0,0,1-4.83-6.46c-.56-1-1.19-2.07-1.69-3.09l0-.07-.6-1.3c-.1-.22-.19-.44-.28-.65a49.65,49.65,0,0,1-3.79-11.72,12.06,12.06,0,0,1-6.8,1.79H257.13l-2-1.68a25,25,0,0,1-5.49-6.59c-1.07,5.49-6.13,8.27-11.86,8.27H201.09c-3.15,0-6.29-.58-8.55-3l-.09-.09-.09-.1c-2-2.36-2.41-5.48-2.41-8.48v-3.83c0-4,1.48-7.71,4.84-10,.22-.16.51-.38.75-.59a24.19,24.19,0,0,0,.15-2.76l-.37.13a42.54,42.54,0,0,1-13.27,1.81,34.67,34.67,0,0,1-16.82-3.85,21.58,21.58,0,0,1-6.92-6.19,43.28,43.28,0,0,1-9.78,6.76,34,34,0,0,1-14.47,3.28c-10.85,0-19.89-4.38-26.14-13.3a31.28,31.28,0,0,1-2-3.33A70.6,70.6,0,0,1,92,269.46C81,284,64.42,289.21,46.66,289.21c-3.38,0-7.54-.08-10.34-2.22s-3.82-5.5-3.82-8.93v-3.94a13.25,13.25,0,0,1,1.38-6.59l.16-.26.17-.25c1.9-2.75,5-3.64,8.12-3.91a10.8,10.8,0,0,0,5.3-1.74c5.29-3.71,6-13.79,6-19.53v-127a35.51,35.51,0,0,0-.36-5.83,7.88,7.88,0,0,0-1.18-.45,11.79,11.79,0,0,1-8.67-11.73c0-3-.14-7.82,1.2-10.54,1.82-3.63,5.54-4.82,9.31-4.82h49.44c3.08,0,6.25.51,8.59,2.71,2.7,2.54,3.09,6.26,3.09,9.75,0,3.17-.1,7.1-1.8,9.88a9.33,9.33,0,0,1-.72,1,40.78,40.78,0,0,1,4.89-4.19c9.93-7.26,22-9.75,34.08-9.75a74.5,74.5,0,0,1,24.13,3.7,38.22,38.22,0,0,1,18.86,13.68,36.67,36.67,0,0,1,6.07,12.51h33.39c3.05,0,6.05.67,8.09,3.15a8.72,8.72,0,0,1,1.39,2.38,38.45,38.45,0,0,1,22.13-7c8.64,0,16.48,2.81,22.06,9.56C292.8,135.2,295,142.81,295,151v7.69q.1-18.54.13-37.07c0-17.22-3-54.25,3.59-68.88l.1-.21,2.7-5.08.06-.1c.09-.17.2-.34.29-.51a10.48,10.48,0,0,1,1-1.56l.09-.14.87-1.13,0-.05c8.07-10.1,17-15.7,30-17.56,10-1.42,20.57-.45,30.63-.46,19.66,0,39.32-.27,59-.31,13.47,0,26.95,0,40.42.14,4.76.07,9.54.15,14.31.35,2.47.11,6.28.19,8.63.91,12.62,3.92,23.59,12.64,29.09,24.8a47.5,47.5,0,0,1,3.46,11.44,22.89,22.89,0,0,1,2.15,2.54l.33.48,4.56.4c6.33.54,11.18,2.53,17.14,4.11,13.14,3.47,49.7,11.13,58.74,19.2,1,.87,1.92,1.78,2.83,2.73l.15.17h22.13c3.28,0,6.5.69,8.67,3.4l.09.11.09.12c1.67,2.28,2,5.16,2,7.9v19.08a7.94,7.94,0,0,1,1-1.53c2.25-2.64,5.49-3.55,8.84-3.55h28.92l.46.06a10,10,0,0,1,2.31.59,64.1,64.1,0,0,1,5.54-10.09c9.25-13.67,22.15-21.68,38.82-21.68,14.51,0,25.88,6.84,34,18.76a60.12,60.12,0,0,1,7.5,15.91Zm.33,49.18H723.43v35.1c0,2.84.34,6.7,2,9.12A3.06,3.06,0,0,0,728,217a7.68,7.68,0,0,0,6.83-3.67c2.81-4,3.61-9.59,3.72-14.36.09-3.86.26-8.85,2.92-11.89,3-3.47,8.54-3.63,12.8-3.63,3.69,0,8.24.23,11.29,2.53l.3.24V171.11Zm-93.94-17.62-4.21,8.59,4,15.61c-.23-3.61-.32-7.18-.32-10.66C671.44,162.63,671.58,158.08,671.92,153.49Zm-82,83.07c-1.18,4.33-2.32,8.67-3.39,13l0,.07-.28,1.07a18.64,18.64,0,0,1,3.44-3.55l.25-.2V236.56Zm-18.42-82.39L577,133.1l0-.07c.9-3.16,2.54-6.23,2.43-9.6s-3.44-4.29-6.37-4.86l-.22,0L547,111.89a45.39,45.39,0,0,1,.72,8.3c0,5,.14,10,.13,15a20.52,20.52,0,0,1,14,3.37,20.09,20.09,0,0,1,9.46,13.7c.1.65.18,1.29.22,1.93ZM502.45,303.11c-1.9,1.4-4,2.81-6.47,4.29a40.71,40.71,0,0,1-10.62,4,83.3,83.3,0,0,1,9.21,2.48c.73.23,1.46.43,2.2.63,4.1,1.1,8.24,2.13,12.32,3.32,1.79.51,3.58,1.05,5.38,1.55,2.72.75,9.43,2.54,12.1,1.15a4.1,4.1,0,0,0,1.67-2.47l7.68-27.56,0-.08c.37-1.2.67-2.41.94-3.61a65.13,65.13,0,0,1-33.19,16.09c-.42.06-.83.13-1.25.18ZM433.79,262.3A69.54,69.54,0,0,1,403,270.6a70.41,70.41,0,0,1-30.28-5.42C353.78,257,340,240.53,334.14,220.93q0,11.67,0,23.33c0,7.05-.35,14.42,0,21.44.08,1.4.35,5.61,1.37,6.72,1.52,1.65,9.51,1.86,11.52,1.91,5.34.14,10.73,0,16.07-.07,7.85-.12,15.69-.23,23.54-.23q23.88,0,47.75,0c1.79,0,3.58,0,5.37.08a64.82,64.82,0,0,1-6-11.81ZM400.12,79.38c.22-6.16,1.7-10.88,4.91-14.62-7.56-.08-15.12-.17-22.68-.19-10,0-20,0-30.05.16-3.62.07-7.26.16-10.87.36-1.22.07-3,.12-4.36.32l-2.89,2.15c0,.58,0,1.23,0,1.69,0,2.34,0,4.69,0,7v24.27a20,20,0,0,1,9.38-7.12A22.39,22.39,0,0,1,350.12,92a19.64,19.64,0,0,1,2.36-7,21,21,0,0,1,16.81-10.89,21.35,21.35,0,0,1,17.61,7.63,24.77,24.77,0,0,1,7.52-2.27,21.8,21.8,0,0,1,5.7-.1ZM111.36,106.06a14.23,14.23,0,0,1-5.06,2.79c0,.38,0,.75,0,1v3.61A32.77,32.77,0,0,1,111.36,106.06Zm-5.07,34.83v22.94c.41-.65.83-1.28,1.28-1.88,3.87-5.2,9.62-9.41,15.75-12.81h-.14C115.28,149.14,109.57,146.11,106.29,140.89Zm46.92-4.71V120.52a10.2,10.2,0,0,0-.08-1.35,2.4,2.4,0,0,0-1,.2c-.87.64-1.05,4.45-1.05,5.37,0,4.31-.36,9.51-2.41,13.38l0,.07c1.54-.66,3.08-1.32,4.6-2Zm0,31a4.65,4.65,0,0,0-.46.92c-.84,2.37-1.15,6.24-1.35,8.74-.47,6-.55,12.07-.55,18.06,0,3.48,0,15.25,1.32,18.36l.05.12h0c.79-1.24,1-5.06,1-6.26V167.19Zm93.3,84.74V157a9.43,9.43,0,0,0-.06-1.09,6.23,6.23,0,0,0-2.31,1v93.25l.1.06a11,11,0,0,1,2.27,1.74Zm391.62-14.34v9.73a10.23,10.23,0,0,1,2.83,2.93Zm0-97v19.9l5.73-13c.2-.45.47-1.06.72-1.67a12.13,12.13,0,0,1-6.24-4.88l0-.06,0,0-.14-.25ZM723.56,144V117c0-.32,0-.87-.06-1.44,0,.57-.07,1.13-.07,1.44v27ZM816.29,250.9V156.8c0-.24,0-.64,0-1a6.51,6.51,0,0,0-2.19,1v92.49l.08,0a11.58,11.58,0,0,1,2.16,1.64Z" transform="translate(-25.5 -18.56)"/></g><path class="cls-7" d="M334.78,33.29c-11.67,1.67-18.88,6.71-25.5,15l-.72.94a9.43,9.43,0,0,0-.95,1.57l-2.54,4.77c-5.58,12.42-3,48.6-3,66,0,17.05-.94,140.07.18,150.37a39.2,39.2,0,0,0,3.55,11.82c.08.19.16.41.24.59l.54,1.16s1.23,2.25,1.49,2.71a19.67,19.67,0,0,0,3.48,4.77l13,9.24c10.66,5.14,20.71,3.08,35.71,3.08,9.94,0,114.25.63,121-.23a36,36,0,0,0,11.05-3.67c10.95-6.65,14.93-10.76,20-25.18,1.9-5.4.76-167.33.76-181,0-14,1.82-28.45-3.66-40.55-4.67-10.34-14.09-17.68-24.79-21-6.06-1.88-103.13-.8-120.25-.78-9.37,0-20.9-.86-29.64.4ZM334,59l-4.75,3.53c-2.35,2.31-2,2.54-2.07,13.76v71.64q.08,48.17,0,96.34c0,43.38-5.21,36.76,59.52,36.77q23.88,0,47.76,0c14.6,0,43.24,3.17,50.48-4.45,3-3.18-.81,1.07.74-.91,3.36-4.29,2.62-6.56,2.62-12.47l0-191.91c0-4.23-.32-5.82-2.67-8.29a41,41,0,0,0-2.95-2.86l-4.58-2.06c-11.67-1.55-35.68-.18-48.62-.16-11.79,0-91.64-1.35-95.5,1.07ZM525.53,98.51a43.13,43.13,0,0,0,5.51,2l43.34,11.15c18.56,3.56,10.45,19.38,9.36,23.24l-17.82,68.74c-3.17,10.66-6.43,26.15-10.07,36.83-1.25,3.66-1,6.19-3,12.72l-4.67,17.55c-.26.85-.74,2.1-1.08,3-2.33,5.91-2.22,11.45-4.44,18.74L535,320.1c-3.84,12.15-17,7.61-27.8,4.48-3.61-1-8-2.15-12.2-3.28-1-.26-1.62-.43-2.55-.74-15.7-5.11-20.67-2.86-40.7-2.86-9.22,0-57.32-1.26-61.71.66L404.07,323c5.77,1.45,10.56,2.39,15.72,4.14,3.08,1,4.59.8,7.79,1.58,2,.48,4.5,1.88,6.94,2.51l22.93,5.93a45.67,45.67,0,0,1,8.25,1.87c5.59,1.45,9.54,2.79,15.25,4.32l30.37,8.2c13.17,4,28.19.22,37.22-8,9.6-8.79,11.64-21.65,14.81-33.94l16.4-61.66c4.1-16.78,8.23-29.06,12.25-46.4.8-3.47,1.66-7.29,2.61-10.89V123.9c0-2.81-.57-5.84-3-7.62l0,0,0,0a5.78,5.78,0,0,1-2.28-3.25,26,26,0,0,1-.19-4.42c0-1.78,0-3.56.06-5.33a15.2,15.2,0,0,1,.26-2.95c.61-2.39,3.33-2.78,5.39-2.78H600c-.77-.81-1.58-1.59-2.42-2.34-7.35-6.56-48-15.59-55.87-17.65-5.38-1.42-9.87-3.38-16-3.91l-.21,24.9Z" transform="translate(-25.5 -18.56)"/><path class="cls-7" d="M53.89,88.49h49.44c2,0,3.23.29,3.79.82S108,91.4,108,94c0,3.3-.25,5.39-.78,6.24s-1.67,1.56-3.47,2.12c-2.1.64-3.34,1.35-3.8,2.2s-.67,2.62-.67,5.39V224.33q0,23.86-12.86,40.9t-39.77,17c-3.36,0-5.42-.25-6.09-.78s-1.07-1.63-1.07-3.36v-3.94A7,7,0,0,1,40,271c.31-.46,1.31-.78,3-.92q17.66-1.54,17.65-28.24v-127c0-5-.46-8.29-1.38-9.71s-2.62-2.52-5.1-3.26a4.83,4.83,0,0,1-3.73-5c0-4.33.15-6.81.47-7.41s1.34-1,3-1Z" transform="translate(-25.5 -18.56)"/><path class="cls-7" d="M160.22,140.65V120.52c0-5.56-2.27-8.36-6.81-8.36-6.24,0-9.35,4.18-9.35,12.58,0,4.75-.54,8.11-1.6,10.1S139,138.6,135.23,140a33.91,33.91,0,0,1-12,2.13c-8.75,0-13.15-4.71-13.15-14.11,0-8.86,3.83-16.12,11.49-21.72s17.61-8.4,29.94-8.4a66.92,66.92,0,0,1,21.87,3.33,31.25,31.25,0,0,1,15.49,11.2,28.84,28.84,0,0,1,5.84,17.33V224.5c.14.5,1.17,1.52,3.05,3.12a5.33,5.33,0,0,1,2.06,4.57c0,2.8-.39,4.75-1.14,5.88s-2.62,2.2-5.53,3.19a36,36,0,0,1-11,1.46c-5.35,0-9.86-1-13.43-3s-6.38-5.85-8.4-11.63c-6,6.24-10.92,10.25-14.64,12a27.12,27.12,0,0,1-11.52,2.63q-13.19,0-20.41-10.32t-7.23-33.77q0-23.44,6.77-32.5t26.36-16.76c8.3-3.19,15.21-6.1,20.67-8.72Zm0,13.5c-7.87,3.44-12.55,7.34-14.07,11.63s-2.31,14-2.31,29.13c0,11.13.64,18.14,1.88,21.08a6.53,6.53,0,0,0,6.45,4.4c5.35,0,8.05-4.43,8.05-13.26v-53Z" transform="translate(-25.5 -18.56)"/><path class="cls-7" d="M237.14,141.81q12.44-15.48,28.38-15.49c7.23,0,12.8,2.34,16.66,7S288,143.86,288,151v99.48a5.8,5.8,0,0,0,2.55,5.1c1.56,1,2.34,3.44,2.34,7.48,0,3.15-.25,5.07-.78,5.7s-1.6.92-3.26.92h-29.1a17.29,17.29,0,0,1-6.2-13.82V157c0-5.42-2.27-8.11-6.77-8.11-2.94,0-6.17,1.52-9.6,4.57v97a6.42,6.42,0,0,0,3.57,5.81c1.46.85,2.17,2.37,2.17,4.57v5.32c0,2.34-1.7,3.5-5.07,3.5H201.09c-1.8,0-2.94-.24-3.43-.77s-.71-1.81-.71-3.9v-3.83c0-2,.6-3.44,1.84-4.25a9.54,9.54,0,0,0,3.19-3.33c.46-1,.71-3.3.71-6.84V145.21a5.49,5.49,0,0,0-3.55-5.28,3.4,3.4,0,0,1-2-3.33V131c0-2.16,1-3.22,2.91-3.22h33.84c1.45,0,2.38.21,2.69.6a4.26,4.26,0,0,1,.54,2.59v10.81Z" transform="translate(-25.5 -18.56)"/><path class="cls-4" d="M340.79,131.07c-1-3.29-2-6.6-2.66-9.93-1.12-5.43-1.65-11.76,1.74-16.54A12.94,12.94,0,0,1,346,100a13.59,13.59,0,0,1,10.07-.11,11.79,11.79,0,0,1,1.14.53c-.67-4.42-.55-8.63,1.33-11.9a14,14,0,0,1,11.21-7.39c7.27-.49,12.93,4.7,15.35,11.13,2.36-3.51,6.17-5.23,10.31-5.84a13,13,0,0,1,9.34,1.94c4.88,3.31,6.62,9.53,8.09,14.91l8.94,32.81a18,18,0,0,1,6.5-5,15,15,0,0,1,3.34-1,12.72,12.72,0,0,1,10.7,2.87c3.66,3.05,5.72,7.77,7,12.26,2.47,9,5.27,17.79,7.65,26.77,3.27,12.35,7,28.68,4.39,41.35C457.77,230.82,448,245.67,432.5,255a62.14,62.14,0,0,1-29.78,8.64,63.48,63.48,0,0,1-27.23-4.85c-17.47-7.59-30-23-35.05-41.26l-17.42-63c-1.49-5.39-3.15-11.77-.52-17.08a13.39,13.39,0,0,1,8.57-6.74,14.86,14.86,0,0,1,9.72.42Z" transform="translate(-25.5 -18.56)"/><path class="cls-7" d="M381.77,173.41c-4.69,1.79-4.58-.44-5.86-5.3l-8.79-32c-3.22-11.66-5.69-36.26-19.24-31.17-10.62,4-2.65,20.9,1.76,36.87,2,7.14,12.25,38.12,10.57,42.84-4.93,1.8-4.52-1-6.66-8.67-1.59-5.76-8.45-35.29-12.15-38.44a9.49,9.49,0,0,0-8.8-1.81c-8.17,2.46-6.58,9.59-4.44,17.31l17.41,63c5.49,19.88,19.11,32.17,32,37.78,14,6.09,35,6.83,52.15-3.46,15.13-9.12,23.33-23.35,26.35-38.21,3.58-17.61-6.46-45.77-12-65.64-5.4-19.56-18.93-9.22-19.75-4.11-.68,4.23,7.07,28.26,8.78,34.46,3.74,13.55-3.09,3.58-18.41,17.35-13.55,12.18-7.29,18.14-14.84,19.1-5.31-8.9,11.73-26.91,28.46-32.82l-20.68-75.89c-2-7.07-4-14.07-11.52-13-8.8,1.29-9,7.93-6.95,15.44l15.36,55.66c1.78,6.51-2.91,9.19-5.51-.23L380.55,95.41c-2.72-9.87-12.86-12.14-17.38-4.26-3.25,5.66,2.19,18.67,4.32,26.37,2.21,8,15.69,51.53,14.28,55.89Z" transform="translate(-25.5 -18.56)"/><path class="cls-4" d="M408.29,116.52c-1.53-5.1-1.46-14.57-1.47-18.82,0-5.83.16-11.63.28-17.46.16-8.16,2.55-12.2,9.95-15.5a15.12,15.12,0,0,1,17.49,3.8,17.63,17.63,0,0,1,2.34-5,16.86,16.86,0,0,1,6.84-5.65,15.13,15.13,0,0,1,19.4,6.3,14.39,14.39,0,0,1,4.23-4.93,15.9,15.9,0,0,1,21.76,3.67,15,15,0,0,1,2.36,5.51,14.69,14.69,0,0,1,5.94-4.08,15.93,15.93,0,0,1,18.36,5.55c4.55,6.28,3.19,18.66,3.07,26.22v.25c3.79.18,7.35.68,9.94,1.88,9.28,4.28,11.93,12.27,11.94,22,0,8.68.45,17.5-.31,26.15-1.13,13.08-7.9,28.86-17.1,38.19-5.06,5.14-8.6,8.74-14.92,12.58-32.38,19.66-77.4,7.37-94-26.86-7.64-15.8-8.27-29.58-7.07-46.87l.5-7,.45.16Z" transform="translate(-25.5 -18.56)"/><path class="cls-8" d="M492.58,96.42,513.52,96c.1-6.4,1.25-18.44-2.06-23a10.57,10.57,0,0,0-12.13-3.7c-9.2,3.55-6.84,16.6-6.75,27.13Zm-9.77,22.89c-.19-6.91-3.14-9.71,1.48-16.24,4-5.69,2.51-5.58,2.51-18.28,0-5.73.89-14.78-2-18.79-2.58-3.57-9.11-6.22-14.34-2.46C462.83,69,465.79,88,465.78,99c0,14.41.48,26.17,17,20.36ZM446,62.67c-9.76,4.6-6.88,15.19-6.88,33.63,0,4.82-.7,14.72,1.08,18.78a10.42,10.42,0,0,0,13.51,5.19c9.51-3.9,6.44-22.44,6.44-33.71,0-4.89.73-14.62-1.11-18.73s-7.32-7.85-13-5.16ZM419.22,69.6c-4.89,2.18-6.66,4-6.8,10.75-.12,6.2-1,31.4,1.29,35.48a10.87,10.87,0,0,0,12.74,4.68c9.82-3.22,7-19.16,7-29.52,0-5.57,1.06-13-1.59-17.21C429.51,70.06,424.58,67.2,419.22,69.6ZM513,135.36c-3,1.93-10.17,1.63-14.22,2.58-12.42,2.94-18.39,8-24.81,16.83-3.67,5-8,1.6-4.66-3.71,12.17-19.59,35.36-18.56,39-21.12l-.1-2.66c-3.25-1.12-7.68-.27-11.25-.46-6.61-.37-6.07-2-10.58-3.28-9.49,5.19-17.7,4.08-22.87-3.37-3.86,2.2-6.18,6.41-13.41,6.55-7.7.15-10.42-4.18-14.39-6.46-2,2.62-4.73,5.38-9.59,6.19-6.13,1-9.19-1.16-13.46-2.7-1.24,17.72-.32,30,6.55,44.18,14.79,30.54,55.87,43.18,86.41,24.63,6.49-3.94,9.2-7,13.9-11.77,7-7.1,14.4-21.19,15.59-34.91.69-8,.28-17.54.28-25.69,0-8.85-2.35-14.14-8.84-17.13-4.86-2.25-17.22-1.24-23.35-1.26-8.08,0-15.74.74-15.81,9.58s7.22,9.93,15.82,9.83c4,0,9.11-1,10.44,1.9.64,1.39.54,4.34.52,6,0,2-.06,4.59-1.14,6.3Z" transform="translate(-25.5 -18.56)"/><path class="cls-4" d="M499.72,168.56a14.42,14.42,0,0,1,6.59-2.87,13.53,13.53,0,0,1,11.62,3.5,13.26,13.26,0,0,1,3.5,5.69L533,157.21c.76-1.18,1.51-2.38,2.27-3.57,2.93-4.59,6.53-9.73,12.08-11.23a14.57,14.57,0,0,1,17,11c1.16,7.08-4.08,13.69-7.72,19.28l-15.08,23.13c2.74-2.49,5.47-5,8.25-7.45,4.44-3.9,8.95-7.72,13.28-11.73,3.09-2.87,6.25-5.8,10.51-6.72a13.42,13.42,0,0,1,10.27,2.22c3.51,2.3,6.17,5.55,6.54,9.86.89,10.45-12,18.74-18.76,25-4,3.7-8,7.47-12,11.16s-8.43,7.67-12.9,11.09c.79.61,1.57,1.23,2.32,1.86,3.07,2.6,5.78,5.63,6.6,9.69.92,4.52-.81,8.81-2.92,12.72-2.85,5.3-6.53,10.55-9.83,15.61C533.7,283.2,519.36,293.3,502.58,296A56.36,56.36,0,0,1,463,287.55a57.46,57.46,0,0,1-17.06-79.91l11.83-18,.22.32c1.43-4,4.37-7.62,6.69-11.12,2.44-3.7,4.6-7.58,7.07-11.25,2.27-3.37,4.93-6.59,8.81-8.15a14.13,14.13,0,0,1,8.41-.58,15,15,0,0,1,10.78,9.73Z" transform="translate(-25.5 -18.56)"/><g id="_2286975280976" data-name=" 2286975280976"><path class="cls-9" d="M476.66,208.06c-7.41-.6-10.23,4.13-18.88-8.81l-7.42,11.31a52.16,52.16,0,0,0,15.49,72.5c25.06,16.06,56.29,8.11,72.61-16.91s17.63-24.71-5-39.6c-6-3.93-10.43-7.36-15.27-2.92-8.58,7.85,2.58,14.2,7.64,17.48,6.58,4.28,4.95,4.18.67,10.71-5.73,8.76-13.74-12.51-39.58-2.35-1.07.42-1.48.9-2.73.53-8.06-2.36,7.36-12.16,26.93-6.42,3.43,1,8.92,4.17,11.47,4.76l1.56-2.33c-3.67-2.72-21.55-11.58-10.48-24.82,9.09-10.89,21.27.36,28.25,4.95,7.8-5.68,18.55-16.14,26.14-23.13,6.74-6.21,25.32-18.35,12.92-26.45-5.92-3.87-9.86-.13-14.25,3.94s-8.85,7.84-13.38,11.83c-4.33,3.8-8.27,7.56-12.82,11.5s-10,10.51-13.89,10.3c-2.67-3.69.57-6.12,3.37-10.37l22.19-34c4.63-7.11,11.48-15.38,3-20.83s-13.13,4.11-17.75,11.21Q522.5,183,507.53,205.88c-5.47,8.4-8.3,14.33-16.46,15-9.08.77-13.87-6.58-14.41-12.84Z" transform="translate(-25.5 -18.56)"/><path class="cls-9" d="M498.74,210.41l15.79-24.21c5.21-8,.6-16.45-7.43-15.24-6.86,1-11.32,11.29-15.63,17.92-4.56,7-11.79,15-9.49,21.41,2.94,8.19,12.14,7.19,16.76.12Z" transform="translate(-25.5 -18.56)"/><path class="cls-9" d="M487.83,164c-8.61-1.85-11.22,6.35-18.74,17.71-2.51,3.79-6.63,8.63-6.68,12.92a8.77,8.77,0,0,0,6.95,8.75c8.35,1.78,13.18-9.83,18.48-17.84,2.26-3.41,6.92-9.75,7.12-13s-2.68-7.57-7.13-8.52Z" transform="translate(-25.5 -18.56)"/></g><g id="_2286975270800" data-name=" 2286975270800"><path class="cls-8" d="M631.13,220.91v27.61a4.76,4.76,0,0,0,2.64,4.32,4.19,4.19,0,0,1,2,4v5.49c0,2.53-1.3,3.8-3.87,3.8h-37q-3.69,0-3.69-4.65v-4.85q0-1.74,2.85-4a9,9,0,0,0,2.6-2.78,9.63,9.63,0,0,0,.24-2.57V123.91q0-6.6-3.9-9.5a3.56,3.56,0,0,1-1.44-1.86,29.17,29.17,0,0,1-.14-4,59.79,59.79,0,0,1,.24-7.7c.18-.67,1.24-1,3.13-1h32.5c1.72,0,2.78.25,3.2.77s.6,1.76.6,3.77v89.33l19.13-43.44c1.23-2.74,1.87-4.6,1.87-5.59,0-2.28-1.66-4.08-4.89-5.38a5.52,5.52,0,0,1-2.92-2c-.49-.84-.74-2.5-.74-5,0-3.13.32-5.06.91-5.77s1.8-1.09,3.52-1.09h28.45c1.59.22,2.36,2,2.36,5.42,0,3.1-.28,5.17-.88,6.26a8.62,8.62,0,0,1-3.83,3.17,13.32,13.32,0,0,0-6.47,6.08l-7.35,15,22,85a10,10,0,0,0,4.29,6,4.9,4.9,0,0,1,2.25,4.43v5.49c0,2.53-1.4,3.8-4.22,3.8H656.94c-3.51,0-5.76-2.29-6.78-6.83L638.3,206.24l-7.17,14.67Z" transform="translate(-25.5 -18.56)"/><path class="cls-8" d="M716.43,164.11v42.1c0,5.59,1.09,9.95,3.23,13.08s5,4.75,8.34,4.75a14.62,14.62,0,0,0,12.55-6.64c3.13-4.47,4.79-10.52,5-18.22.07-4.15.46-6.62,1.19-7.46s3.24-1.23,7.53-1.23c3.73,0,6.08.39,7.07,1.13s1.51,2.67,1.51,5.69a43.06,43.06,0,0,1-10.3,28.28Q742.2,238,725.18,238q-19.51,0-33.13-17.69T678.44,167q0-35.55,12.59-54.16t33-18.61q17.52,0,28.17,15.69t10.62,44.56v9.6ZM730.57,151V117q0-9.66-7-9.67c-4.75,0-7.14,3.23-7.14,9.67v34Z" transform="translate(-25.5 -18.56)"/><path class="cls-8" d="M807.05,141.75q12.35-15.36,28.17-15.37,10.75,0,16.53,7c3.83,4.64,5.73,10.45,5.73,17.48v98.72a5.76,5.76,0,0,0,2.53,5.07c1.55.95,2.32,3.41,2.32,7.42,0,3.13-.24,5-.77,5.66s-1.58.92-3.24.92H829.45a17.17,17.17,0,0,1-6.16-13.72V156.8c0-5.38-2.25-8.05-6.71-8.05-2.92,0-6.12,1.51-9.53,4.53v96.26a6.36,6.36,0,0,0,3.55,5.77c1.44.85,2.14,2.36,2.14,4.54v5.27c0,2.32-1.68,3.49-5,3.49H771.28c-1.8,0-2.92-.25-3.41-.78s-.71-1.79-.71-3.87v-3.8c0-2,.6-3.41,1.83-4.22a9.5,9.5,0,0,0,3.17-3.3c.45-1,.7-3.27.7-6.79V145.12a5.45,5.45,0,0,0-3.52-5.24,3.37,3.37,0,0,1-2-3.3v-5.53c0-2.14,1-3.2,2.89-3.2h33.59c1.44,0,2.35.22,2.67.6a4.29,4.29,0,0,1,.53,2.57v10.73Z" transform="translate(-25.5 -18.56)"/></g></g></svg>