<?xml version="1.0" encoding="utf-8"?>
<!-- Generator: Adobe Illustrator 23.0.0, SVG Export Plug-In . SVG Version: 6.00 Build 0)  -->
<svg version="1.1" id="Capa_1" xmlns="http://www.w3.org/2000/svg" xmlns:xlink="http://www.w3.org/1999/xlink" x="0px" y="0px"
	 viewBox="0 0 600 600" style="enable-background:new 0 0 600 600;" xml:space="preserve">
<style type="text/css">
	.st0{fill-rule:evenodd;clip-rule:evenodd;fill:#29ABE2;}
	.st1{fill-rule:evenodd;clip-rule:evenodd;fill:#0071BC;}
</style>
<g>
	<g>
		<path class="st0" d="M454.76,434.94H138.13c-16.57,0-30-13.43-30-30v-99.78h346.62V434.94z"/>
		<path class="st0" d="M495.38,308.21l95.78,57.01c6.37,3.79,6.46,12.97,0.17,16.89L427.86,484c-4.98,3.1-11.43-0.48-11.43-6.34
			V326.83c0-11.97,9.7-21.67,21.67-21.67h46.21C488.2,305.17,492.03,306.22,495.38,308.21z"/>
	</g>
	<g>
		<path class="st1" d="M144.39,167.06h316.62c16.57,0,30,13.43,30,30v99.78H144.39V167.06z"/>
		<path class="st1" d="M103.76,293.79L7.98,236.77c-6.37-3.79-6.46-12.97-0.17-16.89L171.29,118c4.98-3.1,11.43,0.48,11.43,6.34
			v150.82c0,11.97-9.7,21.67-21.67,21.67h-46.21C110.94,296.83,107.11,295.78,103.76,293.79z"/>
	</g>
</g>
</svg>
